<svg width="198" height="33" viewBox="0 0 198 33" fill="none" xmlns="http://www.w3.org/2000/svg">
<path d="M27.8383 9.16C27.8383 10.6 27.5583 11.92 27.0783 13.08C26.5183 14.28 25.6783 15.32 24.5583 16.16C25.1983 16.44 25.8383 16.8 26.4383 17.2C26.9983 17.64 27.4783 18.16 27.9583 18.76C28.3583 19.4 28.7183 20.12 28.9983 20.92C29.2383 21.76 29.3583 22.68 29.3583 23.72C29.3583 25.32 29.1183 26.68 28.6383 27.8C28.1583 28.92 27.4783 29.84 26.6783 30.56C25.7983 31.28 24.8383 31.8 23.7183 32.12C22.5983 32.44 21.3983 32.6 20.1183 32.6H0.0382813V0.719998H18.5983C19.8783 0.719998 21.0783 0.879999 22.1983 1.12C23.3183 1.44 24.2783 1.92 25.1583 2.56C25.9583 3.24 26.6383 4.12 27.1183 5.16C27.5983 6.24 27.8383 7.56 27.8383 9.16ZM20.8783 22.48C20.8783 21.96 20.7583 21.48 20.5183 21.04C20.2783 20.64 19.9583 20.32 19.5983 20C19.1983 19.76 18.7583 19.52 18.2783 19.36C17.7983 19.2 17.2783 19.08 16.7983 19L8.15828 21.36V25.96H16.7983C17.9583 25.96 18.9183 25.72 19.7183 25.16C20.4783 24.64 20.8783 23.76 20.8783 22.48ZM16.9983 12.36C17.8783 12.16 18.5583 11.8 19.0383 11.24C19.4783 10.72 19.7183 10.12 19.7183 9.48C19.7183 8.8 19.4383 8.28 18.8783 7.92C18.3183 7.6 17.6783 7.4 16.9983 7.4H8.15828V14.52L16.9983 12.36ZM58.1798 12.88V19.76H42.4598V25.76H59.3398V32.6H34.1398V0.719998H58.9398V7.6H42.4598V12.88H58.1798ZM64.1008 0.719998H72.4208L84.3808 20.04V0.719998H92.7008V32.6H84.3808L72.4208 12.92V32.6H64.1008V0.719998ZM122.36 12.88V19.76H106.64V25.76H123.52V32.6H98.3195V0.719998H123.12V7.6H106.64V12.88H122.36ZM152.32 12.88V19.76H136.6V32.6H128.28V0.719998H153.08V7.6H136.6V12.88H152.32ZM164.999 0.719998V32.6H156.679V0.719998H164.999ZM187.425 7.6V32.6H179.105V7.6H168.985V0.719998H197.545V7.6H187.425Z" fill="#F4F4F4"/>
</svg>
