<svg width="103" height="31" viewBox="0 0 103 31" fill="none" xmlns="http://www.w3.org/2000/svg">
<path d="M21.514 11.77V17.79H7.759V29.025H0.479003V1.13H22.179V7.15H7.759V11.77H21.514ZM21.8181 29.025L31.2681 1.13H40.4381L49.8881 29.025H42.6081L39.9481 21.22L30.9181 23.705L29.0981 29.025H21.8181ZM33.1581 17.09L38.0581 15.725L35.8531 9.18L33.1581 17.09ZM50.5714 15.025C50.5714 12.925 50.9564 10.965 51.7614 9.145C52.5314 7.36 53.5814 5.82 54.9814 4.49C56.3114 3.23 57.9214 2.215 59.8114 1.48C61.6664 0.779999 63.6964 0.395 65.9014 0.395C68.1064 0.395 70.1364 0.779999 72.0264 1.48C73.8814 2.215 75.4914 3.23 76.8914 4.49C78.2214 5.82 79.3064 7.36 80.0764 9.145C80.8114 10.965 81.1964 12.925 81.1964 15.025C81.1964 16.81 80.9164 18.455 80.4264 19.96C79.9014 21.5 79.1664 22.9 78.2214 24.09L80.8464 26.715L76.6464 30.95L73.6014 27.905C72.4814 28.465 71.2564 28.92 69.9964 29.27C68.7014 29.55 67.3364 29.725 65.9014 29.725C63.6964 29.725 61.6664 29.34 59.8114 28.64C57.9214 27.905 56.3114 26.89 54.9814 25.595C53.5814 24.3 52.5314 22.76 51.7614 20.94C50.9564 19.155 50.5714 17.195 50.5714 15.025ZM70.5564 16.425L73.2514 19.155C73.7064 17.965 73.9514 16.565 73.9514 15.025C73.9514 13.8 73.7414 12.645 73.3914 11.595C72.9714 10.545 72.4464 9.635 71.7464 8.865C71.0464 8.095 70.2064 7.5 69.2264 7.045C68.2114 6.625 67.0914 6.415 65.9014 6.415C64.6764 6.415 63.5914 6.625 62.6114 7.045C61.5964 7.5 60.7564 8.095 60.0564 8.865C59.3564 9.635 58.7964 10.545 58.4464 11.595C58.0264 12.645 57.8514 13.8 57.8514 15.025C57.8514 16.32 58.0264 17.475 58.4464 18.525C58.7964 19.61 59.3564 20.52 60.0564 21.29C60.7564 22.06 61.5964 22.655 62.6114 23.075C63.5914 23.53 64.6764 23.74 65.9014 23.74C67.0564 23.74 68.0714 23.6 68.9814 23.285L66.3564 20.66L70.5564 16.425ZM99.7677 14.745C99.3127 14.465 98.8227 14.22 98.3327 13.975C97.7727 13.765 97.2477 13.59 96.7577 13.415C96.1977 13.275 95.7077 13.135 95.2177 13.03C94.6927 12.96 94.2377 12.89 93.8877 12.89C92.2427 12.89 91.4377 13.31 91.4377 14.115C91.4377 14.535 91.6127 14.815 91.9977 15.025C92.3477 15.235 92.8377 15.445 93.4677 15.585L97.0027 16.635C98.1227 17.02 99.1027 17.475 100.013 18C100.853 18.56 101.553 19.225 102.078 19.995C102.568 20.8 102.848 21.78 102.848 22.9C102.848 24.16 102.603 25.21 102.113 26.12C101.588 27.03 100.923 27.765 100.083 28.36C99.2077 28.92 98.1927 29.375 97.0727 29.655C95.8827 29.935 94.6577 30.075 93.3977 30.075C91.6477 30.075 89.9327 29.83 88.2877 29.34C86.6077 28.815 84.9977 28.045 83.4577 26.995L86.0127 21.99C86.4327 22.34 86.9227 22.62 87.4827 22.9C88.0427 23.215 88.6027 23.46 89.2327 23.67C89.8277 23.88 90.4577 24.055 91.0877 24.16C91.7177 24.3 92.3127 24.37 92.8727 24.37C93.8527 24.405 94.5527 24.3 94.9727 24.09C95.3577 23.915 95.5677 23.565 95.5677 23.075C95.5677 22.585 95.2877 22.235 94.7277 21.955C94.1677 21.71 93.5027 21.465 92.7327 21.255C91.4027 20.905 90.2477 20.555 89.1977 20.135C88.1477 19.785 87.2377 19.295 86.5377 18.735C85.7677 18.175 85.2077 17.51 84.8227 16.74C84.4027 15.97 84.1577 15.025 84.1577 13.905C84.1227 12.715 84.3677 11.7 84.9277 10.86C85.4177 10.02 86.1177 9.355 86.9927 8.795C87.8327 8.27 88.8127 7.885 89.9327 7.605C90.9827 7.36 92.1027 7.22 93.2227 7.22C95.0427 7.22 96.7227 7.5 98.1927 8.06C99.6627 8.62 100.958 9.25 102.113 9.95L99.7677 14.745Z" fill="#3D3D3D"/>
</svg>
