<svg width="298" height="35" viewBox="0 0 298 35" fill="none" xmlns="http://www.w3.org/2000/svg">
<path d="M9.37484 6.388C9.37484 5.932 9.48284 5.536 9.71084 5.224C9.92684 4.912 10.2388 4.66 10.6468 4.468C11.0308 4.276 11.4988 4.144 12.0268 4.048C12.5548 3.976 13.1188 3.928 13.7428 3.928C14.3428 3.928 14.9188 3.976 15.4588 4.048C15.9868 4.144 16.4548 4.276 16.8508 4.468C17.2348 4.66 17.5468 4.912 17.7868 5.224C18.0028 5.536 18.1228 5.932 18.1228 6.388C18.1228 6.796 18.0388 7.132 17.8708 7.42C17.6908 7.72 17.4508 7.96 17.1508 8.152C16.8388 8.344 16.4788 8.5 16.0708 8.596C15.6388 8.716 15.1828 8.788 14.6908 8.812V9.868H18.7588V11.332H8.73884V9.868H12.8068V8.812C12.3028 8.788 11.8468 8.716 11.4388 8.596C11.0068 8.5 10.6468 8.344 10.3468 8.152C10.0348 7.96 9.80684 7.72 9.63884 7.42C9.45884 7.132 9.37484 6.796 9.37484 6.388ZM18.4108 3.28H9.08684V1.816H12.8068V0.808H14.6908V1.816H18.4108V3.28ZM11.2588 6.388C11.2588 6.76 11.4748 7.012 11.9188 7.156C12.3508 7.312 12.9628 7.384 13.7428 7.384C14.4988 7.384 15.1108 7.312 15.5668 7.156C16.0108 7.012 16.2388 6.76 16.2388 6.388C16.2388 6.028 16.0108 5.764 15.5668 5.608C15.1108 5.464 14.4988 5.392 13.7428 5.392C12.9628 5.392 12.3508 5.464 11.9188 5.608C11.4748 5.764 11.2588 6.028 11.2588 6.388ZM28.328 8.56V8.044H20.084V6.796H30.212V9.808H21.968V10.324H30.332V11.572H20.084V8.56H28.328ZM21.308 2.668V3.208H24.308V4.456H21.308V4.984H24.548V6.232H19.58V1.42H24.548V2.668H21.308ZM25.868 6.256V4.336L24.656 4.612V3.112L25.868 2.836V1.3H27.596V6.256H25.868ZM30.212 6.256H28.472V1.3H30.212V6.256ZM39.356 1.588V2.608C39.356 3.04 39.272 3.448 39.116 3.832L43.22 5.788L42.296 7.108L38.228 5.176C37.772 5.632 37.208 6.028 36.524 6.364C35.828 6.712 35 7 34.052 7.228L33.344 5.848C34.064 5.704 34.676 5.524 35.204 5.284C35.72 5.056 36.152 4.792 36.488 4.504C36.812 4.228 37.052 3.928 37.22 3.592C37.376 3.28 37.46 2.944 37.46 2.596V1.588H39.356ZM33.224 8.152H43.244V9.616H39.176V11.704H37.292V9.616H33.224V8.152Z" fill="#3D3D3D"/>
<path d="M103.003 7.372V1.3H104.731V3.508L105.787 3.136V1.3H107.527V7.372H105.787V4.756L104.731 5.128V7.372H103.003ZM105.643 11.572V9.364H97.3988V7.912H107.527V11.572H105.643ZM100.315 7.072V2.884H96.8948V1.42H102.043V7.072H100.315ZM116.152 8.56V8.044H108.916V6.796H118.036V9.808H110.8V10.324H118.156V11.572H108.916V8.56H116.152ZM112.588 2.62C112.588 2.86 112.552 3.1 112.492 3.352L115.288 4.96L114.316 6.208L111.712 4.696C111.4 5.032 110.992 5.332 110.512 5.584C110.008 5.848 109.42 6.052 108.724 6.22L107.92 4.9C109.768 4.516 110.704 3.748 110.704 2.608V1.276H112.588V2.62ZM118.036 1.3V6.256H116.152V1.3H118.036ZM127.356 1.588V2.608C127.356 3.04 127.272 3.448 127.116 3.832L131.22 5.788L130.296 7.108L126.228 5.176C125.772 5.632 125.208 6.028 124.524 6.364C123.828 6.712 123 7 122.052 7.228L121.344 5.848C122.064 5.704 122.676 5.524 123.204 5.284C123.72 5.056 124.152 4.792 124.488 4.504C124.812 4.228 125.052 3.928 125.22 3.592C125.376 3.28 125.46 2.944 125.46 2.596V1.588H127.356ZM121.224 8.152H131.244V9.616H127.176V11.704H125.292V9.616H121.224V8.152Z" fill="#3D3D3D"/>
<path d="M194.191 6.784V8.248H190.591V9.868H194.659V11.332H184.639V9.868H188.707V8.248H185.227V1.54H194.071V3.004H187.111V6.784H194.191ZM199.656 5.788C199.656 6.4 199.584 6.952 199.464 7.456L202.536 9.736L201.612 11.128L198.804 9.016C198.492 9.496 198.096 9.916 197.604 10.264C197.1 10.612 196.5 10.9 195.792 11.14L194.964 9.748C195.444 9.58 195.852 9.4 196.212 9.184C196.56 8.98 196.848 8.716 197.088 8.404C197.316 8.104 197.484 7.744 197.604 7.312C197.712 6.892 197.772 6.376 197.772 5.776V1.396H199.656V5.788ZM205.104 11.332H203.22V1.3H205.104V11.332Z" fill="#3D3D3D"/>
<path d="M269.668 7.552V11.572H259.54V7.552H269.668ZM264.184 1.42V3.268L265.324 3.004V1.3H267.052V7.012H265.324V4.504L264.184 4.768V6.832H259.036V1.42H264.184ZM269.668 7.012H267.928V1.3H269.668V7.012ZM261.424 9.004V10.12H267.784V9.004H261.424ZM260.764 5.368H262.456V2.884H260.764V5.368ZM272.437 4.9H274.537V1.54H276.421V11.212H270.553V1.54H272.437V4.9ZM280.177 11.332H278.293V6.64L276.781 7.156V5.656L278.293 5.14V1.3H280.177V11.332ZM274.537 6.364H272.437V9.748H274.537V6.364ZM283.351 7.336V7.996H288.979V7.336H290.863V11.572H281.467V7.336H283.351ZM284.287 3.736C283.927 4.012 283.507 4.24 283.027 4.42C282.547 4.612 282.007 4.744 281.407 4.804L280.651 3.472C281.107 3.4 281.515 3.304 281.887 3.184C282.247 3.088 282.571 2.956 282.835 2.8C283.087 2.656 283.291 2.488 283.435 2.272C283.579 2.068 283.651 1.828 283.651 1.54V1.3H285.535V1.54C285.535 1.84 285.463 2.14 285.331 2.452L288.079 3.484L287.155 4.804L284.287 3.736ZM283.591 7.6V6.676H280.783V5.368H288.271V6.676H285.475V7.6H283.591ZM290.863 1.3V6.856H288.979V1.3H290.863ZM288.979 10.12V9.448H283.351V10.12H288.979Z" fill="#3D3D3D"/>
<path d="M0.65078 21.876H4.22678V31.32H2.33078V23.34H0.65078V21.876ZM7.46641 31.392C7.46641 31.968 7.29841 32.376 6.97441 32.628C6.63841 32.868 6.18241 33.024 5.58241 33.072V32.208C5.91841 32.172 6.15841 32.1 6.31441 31.98C6.45841 31.848 6.54241 31.656 6.54241 31.404H5.53441V29.58H7.46641V31.392ZM11.8363 31.56C11.3683 31.56 10.9363 31.5 10.5403 31.392C10.1323 31.272 9.76028 31.116 9.44828 30.912C9.12428 30.696 8.86028 30.444 8.64428 30.156C8.41628 29.868 8.26028 29.532 8.16428 29.16L9.71228 28.536C9.80828 28.764 9.91628 28.968 10.0603 29.16C10.1803 29.352 10.3363 29.52 10.5163 29.652C10.6843 29.796 10.8763 29.904 11.1043 29.976C11.3203 30.048 11.5603 30.096 11.8483 30.096C12.1363 30.096 12.4003 30.048 12.6403 29.952C12.8683 29.868 13.0603 29.736 13.2283 29.568C13.3843 29.412 13.5043 29.22 13.5883 29.004C13.6603 28.788 13.7083 28.56 13.7083 28.308C13.7083 27.756 13.5403 27.312 13.2043 26.976C12.8683 26.64 12.3643 26.472 11.7163 26.472C11.4763 26.472 11.2123 26.544 10.9363 26.664C10.6483 26.808 10.3963 27 10.2043 27.252H8.48828V21.876H15.1003V23.34H10.3843V25.524C10.8643 25.188 11.4763 25.008 12.2203 25.008C12.6763 25.008 13.1083 25.092 13.5163 25.236C13.9243 25.392 14.2843 25.608 14.5963 25.884C14.8963 26.172 15.1363 26.508 15.3283 26.904C15.5083 27.312 15.6043 27.78 15.6043 28.284C15.6043 28.716 15.5083 29.124 15.3403 29.508C15.1603 29.916 14.9083 30.252 14.5843 30.564C14.2483 30.864 13.8523 31.104 13.3963 31.296C12.9283 31.464 12.4123 31.56 11.8363 31.56ZM16.1656 26.592C16.1656 25.836 16.2496 25.152 16.4296 24.528C16.5976 23.928 16.8616 23.4 17.2096 22.968C17.5456 22.548 17.9536 22.224 18.4576 21.984C18.9496 21.768 19.5136 21.648 20.1616 21.648C20.7856 21.648 21.3496 21.768 21.8536 21.984C22.3336 22.224 22.7536 22.548 23.1016 22.968C23.4376 23.4 23.7016 23.928 23.8936 24.528C24.0616 25.152 24.1576 25.836 24.1576 26.592C24.1576 27.36 24.0736 28.044 23.9056 28.644C23.7376 29.268 23.4856 29.784 23.1496 30.216C22.8136 30.648 22.3936 30.972 21.9016 31.212C21.3976 31.44 20.8096 31.56 20.1616 31.56C19.5136 31.56 18.9496 31.44 18.4576 31.212C17.9536 30.972 17.5456 30.648 17.2096 30.216C16.8616 29.784 16.5976 29.268 16.4296 28.644C16.2496 28.044 16.1656 27.36 16.1656 26.592ZM18.0616 26.592C18.0616 27.216 18.1096 27.756 18.2296 28.188C18.3376 28.632 18.4936 28.992 18.6856 29.268C18.8776 29.556 19.0936 29.772 19.3576 29.892C19.5976 30.024 19.8736 30.096 20.1616 30.096C20.4496 30.096 20.7256 30.024 20.9896 29.892C21.2416 29.772 21.4696 29.556 21.6616 29.268C21.8536 28.992 21.9976 28.632 22.1176 28.188C22.2136 27.756 22.2736 27.216 22.2736 26.592C22.2736 25.98 22.2136 25.452 22.1176 25.008C21.9976 24.576 21.8536 24.216 21.6616 23.928C21.4696 23.652 21.2416 23.448 20.9896 23.304C20.7256 23.184 20.4496 23.112 20.1616 23.112C19.8736 23.112 19.5976 23.184 19.3576 23.304C19.0936 23.448 18.8776 23.652 18.6856 23.928C18.4936 24.216 18.3376 24.576 18.2296 25.008C18.1096 25.452 18.0616 25.98 18.0616 26.592ZM24.3546 26.592C24.3546 25.836 24.4386 25.152 24.6186 24.528C24.7866 23.928 25.0506 23.4 25.3986 22.968C25.7346 22.548 26.1426 22.224 26.6466 21.984C27.1386 21.768 27.7026 21.648 28.3506 21.648C28.9746 21.648 29.5386 21.768 30.0426 21.984C30.5226 22.224 30.9426 22.548 31.2906 22.968C31.6266 23.4 31.8906 23.928 32.0826 24.528C32.2506 25.152 32.3466 25.836 32.3466 26.592C32.3466 27.36 32.2626 28.044 32.0946 28.644C31.9266 29.268 31.6746 29.784 31.3386 30.216C31.0026 30.648 30.5826 30.972 30.0906 31.212C29.5866 31.44 28.9986 31.56 28.3506 31.56C27.7026 31.56 27.1386 31.44 26.6466 31.212C26.1426 30.972 25.7346 30.648 25.3986 30.216C25.0506 29.784 24.7866 29.268 24.6186 28.644C24.4386 28.044 24.3546 27.36 24.3546 26.592ZM26.2506 26.592C26.2506 27.216 26.2986 27.756 26.4186 28.188C26.5266 28.632 26.6826 28.992 26.8746 29.268C27.0666 29.556 27.2826 29.772 27.5466 29.892C27.7866 30.024 28.0626 30.096 28.3506 30.096C28.6386 30.096 28.9146 30.024 29.1786 29.892C29.4306 29.772 29.6586 29.556 29.8506 29.268C30.0426 28.992 30.1866 28.632 30.3066 28.188C30.4026 27.756 30.4626 27.216 30.4626 26.592C30.4626 25.98 30.4026 25.452 30.3066 25.008C30.1866 24.576 30.0426 24.216 29.8506 23.928C29.6586 23.652 29.4306 23.448 29.1786 23.304C28.9146 23.184 28.6386 23.112 28.3506 23.112C28.0626 23.112 27.7866 23.184 27.5466 23.304C27.2826 23.448 27.0666 23.652 26.8746 23.928C26.6826 24.216 26.5266 24.576 26.4186 25.008C26.2986 25.452 26.2506 25.98 26.2506 26.592ZM32.5437 26.592C32.5437 25.836 32.6277 25.152 32.8077 24.528C32.9757 23.928 33.2397 23.4 33.5877 22.968C33.9237 22.548 34.3317 22.224 34.8357 21.984C35.3277 21.768 35.8917 21.648 36.5397 21.648C37.1637 21.648 37.7277 21.768 38.2317 21.984C38.7117 22.224 39.1317 22.548 39.4797 22.968C39.8157 23.4 40.0797 23.928 40.2717 24.528C40.4397 25.152 40.5357 25.836 40.5357 26.592C40.5357 27.36 40.4517 28.044 40.2837 28.644C40.1157 29.268 39.8637 29.784 39.5277 30.216C39.1917 30.648 38.7717 30.972 38.2797 31.212C37.7757 31.44 37.1877 31.56 36.5397 31.56C35.8917 31.56 35.3277 31.44 34.8357 31.212C34.3317 30.972 33.9237 30.648 33.5877 30.216C33.2397 29.784 32.9757 29.268 32.8077 28.644C32.6277 28.044 32.5437 27.36 32.5437 26.592ZM34.4397 26.592C34.4397 27.216 34.4877 27.756 34.6077 28.188C34.7157 28.632 34.8717 28.992 35.0637 29.268C35.2557 29.556 35.4717 29.772 35.7357 29.892C35.9757 30.024 36.2517 30.096 36.5397 30.096C36.8277 30.096 37.1037 30.024 37.3677 29.892C37.6197 29.772 37.8477 29.556 38.0397 29.268C38.2317 28.992 38.3757 28.632 38.4957 28.188C38.5917 27.756 38.6517 27.216 38.6517 26.592C38.6517 25.98 38.5917 25.452 38.4957 25.008C38.3757 24.576 38.2317 24.216 38.0397 23.928C37.8477 23.652 37.6197 23.448 37.3677 23.304C37.1037 23.184 36.8277 23.112 36.5397 23.112C36.2517 23.112 35.9757 23.184 35.7357 23.304C35.4717 23.448 35.2557 23.652 35.0637 23.928C34.8717 24.216 34.7157 24.576 34.6077 25.008C34.4877 25.452 34.4397 25.98 34.4397 26.592ZM47.42 31.332V21.3H49.148V25.548L50.204 25.176V21.3H51.944V31.332H50.204V26.796L49.148 27.168V31.332H47.42ZM44.732 31.212V23.004H41.312V21.54H46.46V31.212H44.732Z" fill="#3D3D3D"/>
<path d="M93.4082 21.876H96.9842V31.32H95.0882V23.34H93.4082V21.876ZM101.772 31.56C101.304 31.56 100.872 31.5 100.476 31.392C100.068 31.272 99.6958 31.116 99.3838 30.912C99.0598 30.696 98.7958 30.444 98.5798 30.156C98.3518 29.868 98.1958 29.532 98.0998 29.16L99.6478 28.536C99.7438 28.764 99.8518 28.968 99.9958 29.16C100.116 29.352 100.272 29.52 100.452 29.652C100.62 29.796 100.812 29.904 101.04 29.976C101.256 30.048 101.496 30.096 101.784 30.096C102.072 30.096 102.336 30.048 102.576 29.952C102.804 29.868 102.996 29.736 103.164 29.568C103.32 29.412 103.44 29.22 103.524 29.004C103.596 28.788 103.644 28.56 103.644 28.308C103.644 27.756 103.476 27.312 103.14 26.976C102.804 26.64 102.3 26.472 101.652 26.472C101.412 26.472 101.148 26.544 100.872 26.664C100.584 26.808 100.332 27 100.14 27.252H98.4238V21.876H105.036V23.34H100.32V25.524C100.8 25.188 101.412 25.008 102.156 25.008C102.612 25.008 103.044 25.092 103.452 25.236C103.86 25.392 104.22 25.608 104.532 25.884C104.832 26.172 105.072 26.508 105.264 26.904C105.444 27.312 105.54 27.78 105.54 28.284C105.54 28.716 105.444 29.124 105.276 29.508C105.096 29.916 104.844 30.252 104.52 30.564C104.184 30.864 103.788 31.104 103.332 31.296C102.864 31.464 102.348 31.56 101.772 31.56ZM106.101 26.592C106.101 25.836 106.185 25.152 106.365 24.528C106.533 23.928 106.797 23.4 107.145 22.968C107.481 22.548 107.889 22.224 108.393 21.984C108.885 21.768 109.449 21.648 110.097 21.648C110.721 21.648 111.285 21.768 111.789 21.984C112.269 22.224 112.689 22.548 113.037 22.968C113.373 23.4 113.637 23.928 113.829 24.528C113.997 25.152 114.093 25.836 114.093 26.592C114.093 27.36 114.009 28.044 113.841 28.644C113.673 29.268 113.421 29.784 113.085 30.216C112.749 30.648 112.329 30.972 111.837 31.212C111.333 31.44 110.745 31.56 110.097 31.56C109.449 31.56 108.885 31.44 108.393 31.212C107.889 30.972 107.481 30.648 107.145 30.216C106.797 29.784 106.533 29.268 106.365 28.644C106.185 28.044 106.101 27.36 106.101 26.592ZM107.997 26.592C107.997 27.216 108.045 27.756 108.165 28.188C108.273 28.632 108.429 28.992 108.621 29.268C108.813 29.556 109.029 29.772 109.293 29.892C109.533 30.024 109.809 30.096 110.097 30.096C110.385 30.096 110.661 30.024 110.925 29.892C111.177 29.772 111.405 29.556 111.597 29.268C111.789 28.992 111.933 28.632 112.053 28.188C112.149 27.756 112.209 27.216 112.209 26.592C112.209 25.98 112.149 25.452 112.053 25.008C111.933 24.576 111.789 24.216 111.597 23.928C111.405 23.652 111.177 23.448 110.925 23.304C110.661 23.184 110.385 23.112 110.097 23.112C109.809 23.112 109.533 23.184 109.293 23.304C109.029 23.448 108.813 23.652 108.621 23.928C108.429 24.216 108.273 24.576 108.165 25.008C108.045 25.452 107.997 25.98 107.997 26.592ZM120.737 21.42V27.312H114.869V21.42H120.737ZM117.257 28.152V30.12H124.253V31.572H115.373V28.152H117.257ZM124.133 24.768V28.464H122.249V21.3H124.133V23.304H125.177V24.768H124.133ZM118.853 25.848V22.884H116.753V25.848H118.853ZM131.663 31.332V21.3H133.391V25.548L134.447 25.176V21.3H136.187V31.332H134.447V26.796L133.391 27.168V31.332H131.663ZM128.975 31.212V23.004H125.555V21.54H130.703V31.212H128.975Z" fill="#3D3D3D"/>
<path d="M177.857 29.472V28.008L182.237 21.876H184.133V28.008H185.477V29.472H184.133V31.32H182.237V29.472H177.857ZM182.237 24.24L179.681 28.008H182.237V24.24ZM188.371 31.32H186.343L190.219 23.34H185.539V21.876H192.499V22.812L188.371 31.32ZM192.457 26.592C192.457 25.836 192.541 25.152 192.721 24.528C192.889 23.928 193.153 23.4 193.501 22.968C193.837 22.548 194.245 22.224 194.749 21.984C195.241 21.768 195.805 21.648 196.453 21.648C197.077 21.648 197.641 21.768 198.145 21.984C198.625 22.224 199.045 22.548 199.393 22.968C199.729 23.4 199.993 23.928 200.185 24.528C200.353 25.152 200.449 25.836 200.449 26.592C200.449 27.36 200.365 28.044 200.197 28.644C200.029 29.268 199.777 29.784 199.441 30.216C199.105 30.648 198.685 30.972 198.193 31.212C197.689 31.44 197.101 31.56 196.453 31.56C195.805 31.56 195.241 31.44 194.749 31.212C194.245 30.972 193.837 30.648 193.501 30.216C193.153 29.784 192.889 29.268 192.721 28.644C192.541 28.044 192.457 27.36 192.457 26.592ZM194.353 26.592C194.353 27.216 194.401 27.756 194.521 28.188C194.629 28.632 194.785 28.992 194.977 29.268C195.169 29.556 195.385 29.772 195.649 29.892C195.889 30.024 196.165 30.096 196.453 30.096C196.741 30.096 197.017 30.024 197.281 29.892C197.533 29.772 197.761 29.556 197.953 29.268C198.145 28.992 198.289 28.632 198.409 28.188C198.505 27.756 198.565 27.216 198.565 26.592C198.565 25.98 198.505 25.452 198.409 25.008C198.289 24.576 198.145 24.216 197.953 23.928C197.761 23.652 197.533 23.448 197.281 23.304C197.017 23.184 196.741 23.112 196.453 23.112C196.165 23.112 195.889 23.184 195.649 23.304C195.385 23.448 195.169 23.652 194.977 23.928C194.785 24.216 194.629 24.576 194.521 25.008C194.401 25.452 194.353 25.98 194.353 26.592ZM207.334 31.332V21.3H209.062V25.548L210.118 25.176V21.3H211.858V31.332H210.118V26.796L209.062 27.168V31.332H207.334ZM204.646 31.212V23.004H201.226V21.54H206.374V31.212H204.646Z" fill="#3D3D3D"/>
<path d="M253.306 21.876H256.882V31.32H254.986V23.34H253.306V21.876ZM258.189 31.404V29.58H260.121V31.404H258.189ZM264.563 31.56C264.083 31.56 263.615 31.5 263.183 31.38C262.739 31.248 262.355 31.068 262.019 30.84C261.671 30.6 261.395 30.312 261.203 29.976C260.999 29.652 260.903 29.28 260.903 28.86C260.903 28.512 260.951 28.2 261.059 27.924C261.155 27.66 261.299 27.42 261.467 27.216C261.635 27.024 261.827 26.868 262.043 26.736C262.247 26.616 262.463 26.52 262.679 26.448C262.475 26.388 262.283 26.292 262.115 26.172C261.923 26.052 261.767 25.908 261.635 25.716C261.491 25.548 261.371 25.332 261.299 25.08C261.215 24.84 261.179 24.564 261.179 24.252C261.179 23.88 261.263 23.532 261.443 23.208C261.611 22.896 261.863 22.62 262.175 22.38C262.475 22.152 262.835 21.972 263.243 21.828C263.651 21.708 264.083 21.636 264.563 21.636C265.019 21.636 265.463 21.708 265.883 21.828C266.291 21.972 266.651 22.152 266.963 22.38C267.263 22.62 267.503 22.896 267.683 23.208C267.851 23.532 267.947 23.88 267.947 24.252C267.947 24.564 267.899 24.84 267.827 25.08C267.743 25.332 267.635 25.548 267.503 25.716C267.359 25.908 267.191 26.052 267.023 26.172C266.831 26.292 266.639 26.388 266.447 26.448C266.663 26.52 266.879 26.616 267.095 26.736C267.299 26.868 267.491 27.024 267.659 27.216C267.827 27.42 267.959 27.66 268.067 27.924C268.163 28.2 268.223 28.512 268.223 28.86C268.223 29.28 268.115 29.652 267.923 29.976C267.719 30.312 267.455 30.6 267.119 30.84C266.771 31.068 266.375 31.248 265.943 31.38C265.499 31.5 265.043 31.56 264.563 31.56ZM264.563 30.216C264.803 30.216 265.043 30.18 265.259 30.12C265.463 30.048 265.643 29.952 265.811 29.82C265.955 29.7 266.087 29.556 266.183 29.364C266.267 29.196 266.315 28.992 266.315 28.752C266.315 28.536 266.267 28.332 266.183 28.14C266.087 27.96 265.955 27.804 265.811 27.672C265.643 27.552 265.463 27.444 265.259 27.372C265.043 27.312 264.803 27.276 264.563 27.276C264.311 27.276 264.083 27.312 263.879 27.372C263.663 27.444 263.471 27.552 263.327 27.672C263.159 27.804 263.039 27.96 262.955 28.14C262.859 28.332 262.811 28.536 262.811 28.752C262.811 28.992 262.859 29.196 262.955 29.364C263.039 29.556 263.159 29.7 263.327 29.82C263.471 29.952 263.663 30.048 263.879 30.12C264.083 30.18 264.311 30.216 264.563 30.216ZM264.563 25.776C264.803 25.776 265.031 25.74 265.235 25.656C265.427 25.584 265.583 25.488 265.727 25.356C265.859 25.236 265.967 25.092 266.051 24.924C266.123 24.756 266.159 24.576 266.159 24.384C266.159 23.952 266.015 23.616 265.739 23.352C265.451 23.112 265.055 22.98 264.563 22.98C264.059 22.98 263.675 23.112 263.399 23.352C263.111 23.616 262.967 23.952 262.967 24.384C262.967 24.576 263.003 24.756 263.075 24.924C263.147 25.092 263.255 25.236 263.399 25.356C263.531 25.488 263.699 25.584 263.903 25.656C264.095 25.74 264.311 25.776 264.563 25.776ZM273.735 21.876L271.911 25.164C272.199 25.092 272.547 25.056 272.931 25.056C273.339 25.056 273.747 25.14 274.131 25.296C274.503 25.464 274.839 25.68 275.127 25.956C275.415 26.244 275.643 26.568 275.811 26.94C275.979 27.324 276.063 27.744 276.063 28.176C276.063 28.704 275.967 29.184 275.775 29.592C275.571 30.012 275.307 30.372 274.971 30.66C274.623 30.948 274.215 31.164 273.759 31.332C273.279 31.476 272.775 31.56 272.235 31.56C271.779 31.56 271.335 31.488 270.903 31.344C270.471 31.188 270.087 30.972 269.751 30.708C269.415 30.42 269.139 30.084 268.947 29.7C268.743 29.316 268.647 28.872 268.647 28.392C268.647 27.984 268.707 27.6 268.851 27.252C268.971 26.916 269.127 26.58 269.319 26.232L271.767 21.876H273.735ZM272.319 26.532C272.007 26.532 271.743 26.58 271.515 26.676C271.275 26.772 271.083 26.904 270.939 27.06C270.771 27.228 270.663 27.408 270.591 27.624C270.507 27.852 270.471 28.08 270.471 28.32C270.471 28.56 270.507 28.788 270.603 29.004C270.675 29.22 270.795 29.412 270.963 29.568C271.107 29.736 271.299 29.868 271.539 29.964C271.755 30.06 272.019 30.108 272.319 30.108C272.607 30.108 272.871 30.06 273.111 29.964C273.327 29.868 273.519 29.736 273.687 29.568C273.831 29.412 273.951 29.22 274.047 29.004C274.119 28.788 274.167 28.56 274.167 28.32C274.167 28.08 274.131 27.852 274.059 27.624C273.975 27.408 273.855 27.228 273.711 27.06C273.543 26.904 273.351 26.772 273.123 26.676C272.883 26.58 272.619 26.532 272.319 26.532ZM286.428 21.3V27.372H284.544V24.528L282.984 24.888C282.912 25.248 282.78 25.56 282.612 25.836C282.42 26.124 282.192 26.376 281.928 26.568C281.64 26.772 281.316 26.928 280.956 27.024C280.584 27.144 280.176 27.192 279.744 27.192C279.24 27.192 278.784 27.12 278.376 26.976C277.968 26.844 277.62 26.64 277.344 26.376C277.056 26.124 276.828 25.812 276.684 25.452C276.516 25.092 276.444 24.696 276.444 24.252C276.444 23.808 276.516 23.4 276.684 23.028C276.828 22.668 277.056 22.368 277.344 22.104C277.62 21.852 277.968 21.648 278.376 21.504C278.784 21.372 279.24 21.3 279.744 21.3C280.584 21.3 281.28 21.492 281.844 21.864C282.396 22.248 282.756 22.752 282.936 23.4L284.544 23.028V21.3H286.428ZM284.544 31.572V29.364H277.308V27.912H286.428V31.572H284.544ZM279.744 25.728C280.152 25.728 280.488 25.596 280.764 25.32C281.028 25.056 281.16 24.696 281.16 24.252C281.16 23.796 281.028 23.436 280.764 23.16C280.488 22.896 280.152 22.764 279.744 22.764C279.336 22.764 279 22.896 278.736 23.16C278.46 23.436 278.328 23.796 278.328 24.252C278.328 24.696 278.46 25.056 278.736 25.32C279 25.596 279.336 25.728 279.744 25.728ZM292.565 31.812C291.809 31.812 291.137 31.764 290.549 31.68C289.949 31.584 289.457 31.452 289.049 31.272C288.629 31.08 288.317 30.852 288.101 30.588C287.885 30.312 287.777 30 287.777 29.616C287.777 29.256 287.885 28.932 288.101 28.644C288.317 28.38 288.629 28.152 289.049 27.96C289.457 27.792 289.949 27.66 290.549 27.564C291.137 27.48 291.809 27.432 292.565 27.432C293.309 27.432 293.981 27.48 294.581 27.564C295.169 27.66 295.673 27.792 296.093 27.96C296.501 28.152 296.813 28.38 297.029 28.644C297.245 28.932 297.353 29.256 297.353 29.616C297.353 30 297.245 30.312 297.029 30.588C296.813 30.852 296.501 31.08 296.093 31.272C295.673 31.452 295.169 31.584 294.581 31.68C293.981 31.764 293.309 31.812 292.565 31.812ZM293.357 21.42V26.832H287.489V21.42H293.357ZM297.113 21.3V27.24H295.229V25.728L293.717 26.004V24.576L295.229 24.276V23.52L293.717 23.808V22.38L295.229 22.08V21.3H297.113ZM292.565 30.348C293.477 30.348 294.197 30.288 294.713 30.18C295.217 30.06 295.469 29.88 295.469 29.616C295.469 29.352 295.217 29.172 294.713 29.052C294.197 28.944 293.477 28.884 292.565 28.884C291.641 28.884 290.933 28.944 290.429 29.052C289.913 29.172 289.661 29.352 289.661 29.616C289.661 29.88 289.913 30.06 290.429 30.18C290.933 30.288 291.641 30.348 292.565 30.348ZM291.473 25.368V22.884H289.373V25.368H291.473Z" fill="#3D3D3D"/>
</svg>
