<svg width="173" height="110" viewBox="0 0 173 110" fill="none" xmlns="http://www.w3.org/2000/svg">
<path d="M31.8306 68.16C31.8306 67.2 32.0306 66.36 32.4306 65.6C32.8306 64.88 33.3906 64.28 34.1106 63.72C34.7906 63.24 35.6306 62.84 36.6706 62.52C37.6306 62.24 38.7506 62.04 39.9506 61.96V65.24C38.4306 65.36 37.3506 65.64 36.7506 66.08C36.1106 66.56 35.8306 67.16 35.8306 67.92H40.0306V75.6H31.8306V68.16ZM22.1906 70.16C22.1906 69.2 22.3906 68.36 22.7906 67.6C23.1906 66.88 23.7506 66.28 24.4706 65.72C25.1506 65.24 25.9906 64.84 27.0306 64.52C27.9906 64.24 29.1106 64.04 30.3106 63.96V67.24C28.7906 67.36 27.7106 67.64 27.1106 68.08C26.4706 68.56 26.1906 69.16 26.1906 69.92H30.3906V77.6H22.1906V70.16ZM42.8281 98.6V92.48L54.9081 81.76H43.7081V74.84H65.7481V80.92L53.5081 91.72H66.5881V98.6H42.8281ZM77.7606 74.88V98.6H69.4406V74.88H77.7606ZM77.7606 65.6V72.48H69.4406V65.6H77.7606ZM80.5469 98.6V92.48L92.6269 81.76H81.4269V74.84H103.467V80.92L91.2269 91.72H104.307V98.6H80.5469ZM106.359 98.6V92.48L118.439 81.76H107.239V74.84H129.279V80.92L117.039 91.72H130.119V98.6H106.359ZM141.172 73.44C141.172 74.4 140.972 75.24 140.572 75.96C140.172 76.72 139.612 77.36 138.932 77.84C138.212 78.4 137.332 78.8 136.372 79.08C135.332 79.4 134.252 79.56 133.052 79.64V76.36C134.572 76.28 135.612 76 136.252 75.52C136.852 75.08 137.172 74.48 137.172 73.68H132.972V66H141.172V73.44ZM150.812 71.44C150.812 72.4 150.612 73.24 150.212 73.96C149.812 74.72 149.252 75.36 148.572 75.84C147.852 76.4 146.972 76.8 146.012 77.08C144.972 77.4 143.892 77.56 142.692 77.64V74.36C144.212 74.28 145.252 74 145.892 73.52C146.492 73.08 146.812 72.48 146.812 71.68H142.612V64H150.812V71.44Z" fill="#ADFF00"/>
<path d="M115.731 39.4828V39.7328H115.981H122.828H141.281H141.531V39.4828V32.8142V32.5642H141.281H123.078V23.9024H141.281H141.531V23.6524V16.9838V16.7338H141.281H123.078V8.07203H141.281H141.531V7.82203V1.15344V0.903442H141.281H115.981H115.731V1.15344V1.46384V7.82203V16.9838V23.6524V32.8142V39.4828Z" fill="#F4F4F4" stroke="#F4F4F4" stroke-width="0.5"/>
<path d="M147.066 8.07203H163.209L146.896 32.5642H146.799V32.71L146.707 32.848L146.799 32.9177V39.4828V39.7328H147.049H172.346H172.596V39.4828V32.8142V32.5642H172.346H155.637L171.952 8.07203H172.133V7.82203V1.15344V0.903442H171.883H147.066H146.816V1.15344V7.82203V8.07203H147.066Z" fill="#F4F4F4" stroke="#F4F4F4" stroke-width="0.5"/>
<path d="M57.6081 1.33069C55.4404 1.33069 53.6708 3.04881 53.6708 5.17531C53.6708 7.30226 55.4443 9.0166 57.6081 9.0166C59.772 9.0166 61.5453 7.29878 61.5453 5.17531C61.5453 3.05215 59.7723 1.33069 57.6081 1.33069Z" fill="#F4F4F4" stroke="#F4F4F4" stroke-width="0.5"/>
<path d="M1 0.75H0.75V1V7.66858V7.91858H1H11.8119V39.6364V39.8864H12.0619H18.9087H19.1587V39.6364V7.91858H29.9706H30.2206V7.66858V1V0.75H29.9706H18.9087H12.0619H1Z" fill="#F4F4F4" stroke="#F4F4F4" stroke-width="0.5"/>
<path d="M47.6469 11.4786C44.0882 12.6023 41.3482 14.0838 39.2366 15.6578V11.6637V11.4137H38.9866H32.1397H31.8897V11.6637V39.6364V39.8864H32.1397H38.9866H39.2366V39.6364V25.1733C41.5032 22.6528 43.9281 20.9381 45.801 19.8489C46.746 19.2993 47.5497 18.9094 48.1203 18.6559C48.4056 18.5291 48.6326 18.4365 48.7897 18.3751C48.8683 18.3444 48.9293 18.3215 48.9715 18.3061C49.015 18.2902 49.0361 18.283 49.0359 18.2831L49.0383 18.2823L49.525 18.1187L49.7263 18.0511L49.692 17.8415L48.6503 11.4632L48.6038 11.1788L48.3288 11.265L47.6469 11.4786Z" fill="#F4F4F4" stroke="#F4F4F4" stroke-width="0.5"/>
<path d="M61.2815 11.6638V11.4138H61.0315H54.1846H53.9346V11.6638V39.6365V39.8865H54.1846H61.0315H61.2815V39.6365V11.6638Z" fill="#F4F4F4" stroke="#F4F4F4" stroke-width="0.5"/>
<path d="M107.941 1.29712V1.04712H107.691H100.845H100.595V1.29712V39.3361V39.5861H100.845H107.691H107.941V39.3361V1.29712Z" fill="#F4F4F4" stroke="#F4F4F4" stroke-width="0.5"/>
<path d="M95.0498 24.2266C95.0479 31.0505 89.3464 36.5992 82.343 36.5992C79.7139 36.5992 77.2775 35.8114 75.2493 34.4751V34.7733M95.0498 24.2266L74.9993 45V44.75V34.609C75.082 34.6646 75.1653 34.7194 75.2493 34.7733M95.0498 24.2266H95.2998C95.2979 31.1948 89.4781 36.8492 82.343 36.8492C79.7223 36.8492 77.289 36.0811 75.2493 34.7733M95.0498 24.2266L95.2998 24.2232C95.2979 17.2584 89.4816 11.6006 82.343 11.6006C79.7223 11.6006 77.289 12.3687 75.2493 13.6765V11.6604V11.4104H74.9993H68.1525H67.9025V11.6604V45V45.25H68.1525H74.9993H75.2493V45V34.7733M82.343 29.6339C79.2707 29.6339 76.7845 27.203 76.7845 24.2266C76.7845 21.2501 79.2707 18.8193 82.343 18.8193C85.4152 18.8193 87.9015 21.2534 87.9015 24.2266C87.9015 27.1997 85.4119 29.6339 82.343 29.6339Z" fill="#F4F4F4"/>
<path d="M95.0498 24.2266C95.0479 31.0505 89.3464 36.5992 82.343 36.5992C79.7139 36.5992 77.2775 35.8114 75.2493 34.4751V34.7733M95.0498 24.2266L74.9993 45V44.75V34.609C75.082 34.6646 75.1653 34.7194 75.2493 34.7733M95.0498 24.2266H95.2998C95.2979 31.1948 89.4781 36.8492 82.343 36.8492C79.7223 36.8492 77.289 36.0811 75.2493 34.7733M95.0498 24.2266L95.2998 24.2232C95.2979 17.2584 89.4816 11.6006 82.343 11.6006C79.7223 11.6006 77.289 12.3687 75.2493 13.6765V11.6604V11.4104H74.9993H68.1525H67.9025V11.6604V45V45.25H68.1525H74.9993H75.2493V45V34.7733M82.343 29.6339C79.2707 29.6339 76.7845 27.203 76.7845 24.2266C76.7845 21.2501 79.2707 18.8193 82.343 18.8193C85.4152 18.8193 87.9015 21.2534 87.9015 24.2266C87.9015 27.1997 85.4119 29.6339 82.343 29.6339Z" stroke="#F4F4F4" stroke-width="0.5"/>
</svg>
