<svg width="248" height="27" viewBox="0 0 248 27" fill="none" xmlns="http://www.w3.org/2000/svg">
<path d="M0.19668 1.54H13.6067C14.6267 1.54 15.6167 1.69 16.5467 1.96C17.4467 2.26 18.2267 2.68 18.8867 3.22C19.5467 3.82 20.0567 4.54 20.4467 5.44C20.8067 6.34 21.0167 7.42 21.0167 8.62C21.0167 10.24 20.7467 11.53 20.2067 12.49C19.6667 13.51 18.8567 14.29 17.8067 14.89L22.3667 25.45H15.8567L12.1367 16.69L6.43668 17.95V25.45H0.19668V1.54ZM14.8067 8.77C14.8067 8.23 14.6267 7.72 14.2667 7.3C13.8767 6.91 13.3667 6.7 12.7667 6.7H6.43668V12.49L12.1367 11.44C13.1567 11.26 13.8467 10.93 14.2367 10.45C14.5967 9.97 14.8067 9.43 14.8067 8.77ZM43.0997 10.66V15.82H31.3097V20.32H43.9697V25.45H25.0697V1.54H43.6697V6.7H31.3097V10.66H43.0997ZM49.3704 17.65C50.4204 18.55 51.6504 19.3 53.0904 19.84C54.5004 20.41 55.9704 20.68 57.4704 20.65C58.4604 20.65 59.1804 20.5 59.6604 20.2C60.1104 19.93 60.3504 19.51 60.3504 18.94C60.3504 18.28 60.0804 17.77 59.5704 17.35C59.0304 16.96 58.1304 16.6 56.9004 16.24C55.8204 15.94 54.7404 15.61 53.6304 15.25C52.4904 14.92 51.4704 14.47 50.5704 13.87C49.6404 13.3 48.8904 12.55 48.3204 11.65C47.7204 10.75 47.4204 9.61 47.4204 8.17C47.4204 6.91 47.6604 5.83 48.1704 4.9C48.6504 4 49.3104 3.25 50.1804 2.65C51.0204 2.08 52.0104 1.66 53.1504 1.36C54.2604 1.09 55.4604 0.939999 56.7204 0.939999C57.5904 0.939999 58.4304 0.999999 59.2404 1.12C60.0204 1.24 60.8004 1.42 61.5804 1.66C62.3304 1.93 63.0804 2.26 63.8604 2.62C64.5804 3.01 65.3604 3.46 66.1704 4L63.7104 8.8C62.7504 8.08 61.6704 7.48 60.5304 7.06C59.3604 6.64 58.1304 6.43 56.8704 6.37C56.4504 6.37 56.0604 6.37 55.7004 6.4C55.3104 6.46 54.9804 6.55 54.7104 6.67C54.4104 6.82 54.2004 7 54.0504 7.18C53.8704 7.39 53.7804 7.63 53.7804 7.93C53.7804 8.23 53.8104 8.5 53.9304 8.71C53.9904 8.95 54.1704 9.19 54.4404 9.37C54.6804 9.58 55.0704 9.79 55.5804 9.97C56.0604 10.18 56.6904 10.39 57.5304 10.6C58.7904 10.96 60.0204 11.35 61.1604 11.71C62.2704 12.13 63.2604 12.61 64.1004 13.18C64.9404 13.78 65.6004 14.53 66.0804 15.4C66.5604 16.3 66.8004 17.41 66.8004 18.73C66.8004 19.99 66.5604 21.07 66.0804 21.97C65.6004 22.87 64.9104 23.65 64.0704 24.25C63.2004 24.85 62.1804 25.3 61.0104 25.6C59.8104 25.9 58.5204 26.05 57.1404 26.05C55.1304 26.05 53.2704 25.75 51.5604 25.15C49.8204 24.55 48.2004 23.71 46.7304 22.66L49.3704 17.65ZM88.422 10.66V15.82H76.632V20.32H89.292V25.45H70.392V1.54H88.992V6.7H76.632V10.66H88.422ZM92.8627 1.54H106.273C107.293 1.54 108.283 1.69 109.213 1.96C110.113 2.26 110.893 2.68 111.553 3.22C112.213 3.82 112.723 4.54 113.113 5.44C113.473 6.34 113.683 7.42 113.683 8.62C113.683 10.24 113.413 11.53 112.873 12.49C112.333 13.51 111.523 14.29 110.473 14.89L115.033 25.45H108.523L104.803 16.69L99.1027 17.95V25.45H92.8627V1.54ZM107.473 8.77C107.473 8.23 107.293 7.72 106.933 7.3C106.543 6.91 106.033 6.7 105.433 6.7H99.1027V12.49L104.803 11.44C105.823 11.26 106.513 10.93 106.903 10.45C107.263 9.97 107.473 9.43 107.473 8.77ZM121.89 1.54L127.68 18.55L133.47 1.54H139.71L131.61 25.45H123.75L115.65 1.54H121.89ZM138.794 25.45L146.894 1.54H154.754L162.854 25.45H156.614L154.334 18.76L146.594 20.89L145.034 25.45H138.794ZM148.514 15.22L152.714 14.05L150.824 8.44L148.514 15.22ZM176.069 6.7V25.45H169.829V6.7H162.239V1.54H183.659V6.7H176.069ZM192.911 1.54V25.45H186.671V1.54H192.911ZM196.501 13.45C196.501 11.65 196.831 9.97 197.521 8.41C198.181 6.88 199.081 5.56 200.281 4.42C201.421 3.34 202.801 2.47 204.421 1.84C206.011 1.24 207.751 0.91 209.641 0.91C211.531 0.91 213.271 1.24 214.891 1.84C216.481 2.47 217.861 3.34 219.061 4.42C220.201 5.56 221.131 6.88 221.791 8.41C222.421 9.97 222.751 11.65 222.751 13.45C222.751 15.31 222.421 16.99 221.791 18.52C221.131 20.08 220.201 21.4 219.061 22.51C217.861 23.62 216.481 24.49 214.891 25.12C213.271 25.72 211.531 26.05 209.641 26.05C207.751 26.05 206.011 25.72 204.421 25.12C202.801 24.49 201.421 23.62 200.281 22.51C199.081 21.4 198.181 20.08 197.521 18.52C196.831 16.99 196.501 15.31 196.501 13.45ZM202.741 13.45C202.741 14.56 202.891 15.55 203.251 16.45C203.551 17.38 204.031 18.16 204.631 18.82C205.231 19.48 205.951 19.99 206.821 20.35C207.661 20.74 208.591 20.92 209.641 20.92C210.661 20.92 211.621 20.74 212.491 20.35C213.331 19.99 214.051 19.48 214.651 18.82C215.251 18.16 215.701 17.38 216.061 16.45C216.361 15.55 216.541 14.56 216.541 13.45C216.541 12.4 216.361 11.41 216.061 10.51C215.701 9.61 215.251 8.83 214.651 8.17C214.051 7.51 213.331 7 212.491 6.61C211.621 6.25 210.661 6.07 209.641 6.07C208.591 6.07 207.661 6.25 206.821 6.61C205.951 7 205.231 7.51 204.631 8.17C204.031 8.83 203.551 9.61 203.251 10.51C202.891 11.41 202.741 12.4 202.741 13.45ZM226.339 1.54H232.579L241.549 16.03V1.54H247.789V25.45H241.549L232.579 10.69V25.45H226.339V1.54Z" fill="#F4F4F4"/>
</svg>
