<svg width="230" height="35" viewBox="0 0 230 35" fill="none" xmlns="http://www.w3.org/2000/svg">
<path d="M0.928906 1.72H18.8089C20.1689 1.72 21.4889 1.92 22.7289 2.28C23.9289 2.68 24.9689 3.24 25.8489 3.96C26.7289 4.76 27.4089 5.72 27.9289 6.92C28.4089 8.12 28.6889 9.56 28.6889 11.16C28.6889 13.32 28.3289 15.04 27.6089 16.32C26.8889 17.68 25.8089 18.72 24.4089 19.52L30.4889 33.6H21.8089L16.8489 21.92L9.24891 23.6V33.6H0.928906V1.72ZM20.4089 11.36C20.4089 10.64 20.1689 9.96 19.6889 9.4C19.1689 8.88 18.4889 8.6 17.6889 8.6H9.24891V16.32L16.8489 14.92C18.2089 14.68 19.1289 14.24 19.6489 13.6C20.1289 12.96 20.4089 12.24 20.4089 11.36ZM31.293 17.6C31.293 15.2 31.733 12.96 32.653 10.88C33.533 8.84 34.733 7.08 36.333 5.56C37.853 4.12 39.693 2.96 41.853 2.12C43.973 1.32 46.293 0.88 48.813 0.88C51.333 0.88 53.653 1.32 55.813 2.12C57.933 2.96 59.773 4.12 61.373 5.56C62.893 7.08 64.133 8.84 65.013 10.88C65.853 12.96 66.293 15.2 66.293 17.6C66.293 20.08 65.853 22.32 65.013 24.36C64.133 26.44 62.893 28.2 61.373 29.68C59.773 31.16 57.933 32.32 55.813 33.16C53.653 33.96 51.333 34.4 48.813 34.4C46.293 34.4 43.973 33.96 41.853 33.16C39.693 32.32 37.853 31.16 36.333 29.68C34.733 28.2 33.533 26.44 32.653 24.36C31.733 22.32 31.293 20.08 31.293 17.6ZM39.613 17.6C39.613 19.08 39.813 20.4 40.293 21.6C40.693 22.84 41.333 23.88 42.133 24.76C42.933 25.64 43.893 26.32 45.053 26.8C46.173 27.32 47.413 27.56 48.813 27.56C50.173 27.56 51.453 27.32 52.613 26.8C53.733 26.32 54.693 25.64 55.493 24.76C56.293 23.88 56.893 22.84 57.373 21.6C57.773 20.4 58.013 19.08 58.013 17.6C58.013 16.2 57.773 14.88 57.373 13.68C56.893 12.48 56.293 11.44 55.493 10.56C54.693 9.68 53.733 9 52.613 8.48C51.453 8 50.173 7.76 48.813 7.76C47.413 7.76 46.173 8 45.053 8.48C43.893 9 42.933 9.68 42.133 10.56C41.333 11.44 40.693 12.48 40.293 13.68C39.813 14.88 39.613 16.2 39.613 17.6ZM65.4758 33.6L76.2758 1.72H86.7558L97.5558 33.6H89.2358L86.1958 24.68L75.8758 27.52L73.7958 33.6H65.4758ZM78.4358 19.96L84.0358 18.4L81.5158 10.92L78.4358 19.96ZM99.1477 1.72H114.588C116.748 1.72 118.668 2.12 120.428 2.92C122.108 3.76 123.588 4.88 124.788 6.28C125.988 7.72 126.908 9.36 127.548 11.28C128.148 13.24 128.468 15.36 128.468 17.6C128.468 19.96 128.108 22.12 127.468 24.04C126.748 26.04 125.748 27.72 124.468 29.12C123.108 30.52 121.508 31.64 119.588 32.44C117.628 33.2 115.388 33.6 112.868 33.6H99.1477V1.72ZM107.468 26.72H112.388C113.668 26.72 114.828 26.48 115.828 25.96C116.788 25.48 117.588 24.84 118.228 23.96C118.868 23.16 119.348 22.16 119.668 21.04C119.988 19.92 120.148 18.76 120.148 17.48C120.148 16.28 119.948 15.12 119.588 14C119.188 12.96 118.668 12 117.988 11.2C117.268 10.4 116.388 9.76 115.348 9.28C114.308 8.84 113.108 8.6 111.748 8.6H107.468V26.72ZM158.369 1.72H166.889V33.6H158.569V17.68L152.049 33.6H146.089L139.569 17.68V33.6H131.249V1.72H139.769L149.049 24.4L158.369 1.72ZM168.421 33.6L179.221 1.72H189.701L200.501 33.6H192.181L189.141 24.68L178.821 27.52L176.741 33.6H168.421ZM181.381 19.96L186.981 18.4L184.461 10.92L181.381 19.96ZM202.093 1.72H219.973C221.333 1.72 222.653 1.92 223.893 2.28C225.093 2.68 226.133 3.24 227.013 3.96C227.893 4.76 228.573 5.72 229.093 6.92C229.573 8.12 229.853 9.56 229.853 11.16C229.853 12.76 229.653 14.12 229.253 15.24C228.853 16.4 228.253 17.36 227.453 18.12C226.653 18.92 225.653 19.6 224.493 20.08C223.293 20.64 221.893 21.08 220.373 21.4L210.413 23.6V33.6H202.093V1.72ZM221.573 11.36C221.573 10.64 221.333 9.96 220.853 9.4C220.333 8.88 219.653 8.6 218.853 8.6H210.413V16.32L218.013 14.92C219.373 14.68 220.293 14.24 220.813 13.6C221.293 12.96 221.573 12.24 221.573 11.36Z" fill="#F4F4F4"/>
</svg>
