<svg width="237" height="19" viewBox="0 0 237 19" fill="none" xmlns="http://www.w3.org/2000/svg">
<path d="M10.9905 12.32C10.9905 13.38 10.8505 14.28 10.5905 15C10.3105 15.76 9.97047 16.34 9.53047 16.82C9.07047 17.26 8.55047 17.6 7.99047 17.82C7.41047 18.02 6.81047 18.12 6.21047 18.12C5.57047 18.12 4.97047 18.02 4.41047 17.82C3.83047 17.6 3.33047 17.26 2.91047 16.82C2.47047 16.34 2.11047 15.76 1.87047 15C1.59047 14.28 1.47047 13.38 1.47047 12.32C1.47047 11.28 1.59047 10.38 1.87047 9.64C2.11047 8.92 2.47047 8.32 2.91047 7.84C3.33047 7.4 3.83047 7.06 4.41047 6.84C4.97047 6.64 5.57047 6.52 6.21047 6.52C6.81047 6.52 7.41047 6.64 7.99047 6.84C8.55047 7.06 9.07047 7.4 9.53047 7.84C9.97047 8.32 10.3105 8.92 10.5905 9.64C10.8505 10.38 10.9905 11.28 10.9905 12.32ZM12.8905 18.12V1.6H14.8905V9.12L17.1505 8.34V1.6H19.1505V18.12H17.1505V10L14.8905 10.78V18.12H12.8905ZM3.47047 12.32C3.47047 13.7 3.71047 14.74 4.21047 15.42C4.69047 16.12 5.37047 16.48 6.21047 16.48C6.99047 16.48 7.65047 16.12 8.19047 15.42C8.71047 14.74 8.97047 13.7 8.97047 12.3C8.97047 11.62 8.89047 11.02 8.77047 10.5C8.61047 10 8.43047 9.56 8.19047 9.2C7.93047 8.86 7.63047 8.6 7.31047 8.42C6.97047 8.26 6.61047 8.16 6.21047 8.16C5.37047 8.16 4.69047 8.52 4.21047 9.2C3.71047 9.92 3.47047 10.96 3.47047 12.32ZM0.970469 3.2H5.21047V1.04H7.21047V3.2H11.4705V4.84H0.970469V3.2ZM28.785 18.92C27.665 18.92 26.645 18.84 25.765 18.7C24.865 18.54 24.105 18.32 23.485 18.04C22.845 17.74 22.345 17.38 22.025 16.94C21.665 16.48 21.505 15.96 21.505 15.36C21.505 14.76 21.665 14.24 22.025 13.78C22.345 13.34 22.845 12.98 23.485 12.68C24.105 12.4 24.865 12.2 25.765 12.04C26.645 11.9 27.665 11.82 28.785 11.82C29.905 11.82 30.905 11.9 31.805 12.04C32.685 12.2 33.465 12.4 34.105 12.68C34.725 12.98 35.205 13.34 35.565 13.78C35.885 14.24 36.065 14.76 36.065 15.36C36.065 15.96 35.885 16.48 35.565 16.94C35.205 17.38 34.725 17.74 34.105 18.04C33.465 18.32 32.685 18.54 31.805 18.7C30.905 18.84 29.905 18.92 28.785 18.92ZM31.605 1.8V3.44H23.025V8.98H31.805V10.62H21.025V1.8H31.605ZM28.785 17.28C29.585 17.28 30.305 17.24 30.965 17.16C31.605 17.08 32.145 16.96 32.625 16.8C33.065 16.64 33.425 16.44 33.685 16.2C33.925 15.96 34.065 15.68 34.065 15.36C34.065 15.04 33.925 14.76 33.685 14.52C33.425 14.3 33.065 14.1 32.625 13.94C32.145 13.78 31.605 13.66 30.965 13.58C30.305 13.5 29.585 13.46 28.785 13.46C27.985 13.46 27.245 13.5 26.605 13.58C25.945 13.66 25.385 13.78 24.945 13.94C24.465 14.1 24.125 14.3 23.885 14.52C23.625 14.76 23.505 15.04 23.505 15.36C23.505 15.68 23.625 15.96 23.885 16.2C24.125 16.44 24.465 16.64 24.945 16.8C25.385 16.96 25.945 17.08 26.605 17.16C27.245 17.24 27.985 17.28 28.785 17.28ZM35.665 6.68V11.32H33.665V1.6H35.665V5.04H38.005V6.68H35.665ZM44.2136 16.06V12.78H39.7736V2H50.5936V3.64H41.7736V11.14H50.7936V12.78H46.2136V16.06H51.7536V17.7H39.0736V16.06H44.2136ZM55.0736 18.12H53.0736V1.6H55.0736V18.12ZM60.9567 1.8V6.24H72.6967V7.88H58.9567V1.8H60.9567ZM57.7767 9.9H73.8767V11.54H57.7767V9.9ZM60.7567 13.02V16.88H73.0967V18.52H58.7567V13.02H60.7567ZM83.2398 8.2H88.8198V2H90.8198V17.92H81.2398V2H83.2398V8.2ZM96.4798 18.12H94.4798V9.94L91.6198 10.94V9.38L94.4798 8.38V1.6H96.4798V18.12ZM88.8198 9.84H83.2398V16.28H88.8198V9.84ZM114.303 7.92V9.56H100.363V1.78H114.103V3.42H102.363V4.86H114.103V6.5H102.363V7.92H114.303ZM102.163 13.82V16.88H114.503V18.52H100.163V13.82H102.163ZM99.183 10.9H115.283V12.54H99.183V10.9ZM125.621 7.32C124.501 7.32 123.501 7.28 122.641 7.16C121.761 7.08 121.021 6.9 120.421 6.66C119.821 6.44 119.361 6.14 119.041 5.74C118.721 5.38 118.561 4.92 118.561 4.36C118.561 3.82 118.721 3.36 119.041 2.96C119.361 2.6 119.821 2.28 120.421 2.04C121.021 1.82 121.761 1.66 122.641 1.54C123.501 1.46 124.501 1.4 125.621 1.4C126.681 1.4 127.641 1.46 128.521 1.54C129.381 1.66 130.121 1.82 130.761 2.04C131.361 2.28 131.841 2.6 132.201 2.96C132.521 3.36 132.701 3.82 132.701 4.36C132.701 4.92 132.541 5.38 132.221 5.74C131.901 6.14 131.441 6.44 130.841 6.66C130.221 6.9 129.481 7.08 128.621 7.16C127.741 7.28 126.741 7.32 125.621 7.32ZM125.621 5.68C127.321 5.68 128.601 5.58 129.441 5.38C130.281 5.2 130.701 4.86 130.701 4.36C130.701 3.88 130.281 3.52 129.441 3.32C128.601 3.14 127.321 3.04 125.621 3.04C123.901 3.04 122.641 3.14 121.821 3.32C120.981 3.52 120.561 3.88 120.561 4.36C120.561 4.86 120.981 5.2 121.821 5.38C122.641 5.58 123.901 5.68 125.621 5.68ZM117.581 8.72H133.681V10.36H117.581V8.72ZM130.701 14.24V13.22H118.561V11.58H132.701V15.88H120.561V16.88H132.901V18.52H118.561V14.24H130.701ZM153.905 14.14V13.02H141.765V11.38H155.905V15.78H143.765V16.88H156.105V18.52H141.765V14.14H153.905ZM153.705 7.68V6.54H141.965V4.9H153.705V3.44H141.965V1.8H155.705V7.68H153.705ZM140.785 8.62H156.885V10.26H140.785V8.62ZM159.443 3.44V1.8H169.423V7.44H161.443V9.78H169.823V11.42H159.443V5.8H167.423V3.44H159.443ZM174.683 1.6V11.52H172.683V1.6H174.683ZM172.683 18.52V14.26H160.283V12.62H174.683V18.52H172.683ZM180.486 12.1V13.66H190.286V12.1H192.286V18.52H178.486V12.1H180.486ZM182.526 4.94C183.286 4.94 183.966 5 184.606 5.12C185.226 5.24 185.766 5.44 186.226 5.68C186.666 5.94 187.006 6.26 187.246 6.62C187.486 7 187.606 7.44 187.606 7.94C187.606 8.46 187.486 8.92 187.246 9.28C187.006 9.66 186.666 9.96 186.226 10.2C185.766 10.44 185.226 10.62 184.606 10.74C183.966 10.86 183.286 10.92 182.526 10.92C181.766 10.92 181.066 10.86 180.466 10.74C179.826 10.62 179.306 10.44 178.866 10.2C178.426 9.96 178.086 9.66 177.846 9.28C177.606 8.92 177.486 8.46 177.486 7.94C177.486 7.44 177.606 7 177.846 6.62C178.086 6.26 178.426 5.94 178.866 5.68C179.306 5.44 179.826 5.24 180.466 5.12C181.066 5 181.766 4.94 182.526 4.94ZM192.286 6.88V11H190.286V1.6H192.286V5.24H194.626V6.88H192.286ZM176.986 2.2H181.526V0.64H183.526V2.2H188.086V3.84H176.986V2.2ZM190.286 16.88V15.3H180.486V16.88H190.286ZM182.526 6.58C182.126 6.58 181.746 6.6 181.386 6.64C181.006 6.7 180.686 6.78 180.406 6.88C180.126 7 179.906 7.16 179.746 7.32C179.566 7.5 179.486 7.7 179.486 7.94C179.486 8.18 179.566 8.38 179.746 8.54C179.906 8.72 180.126 8.86 180.406 8.96C180.686 9.08 181.006 9.16 181.386 9.2C181.746 9.26 182.126 9.28 182.526 9.28C182.926 9.28 183.306 9.26 183.686 9.2C184.046 9.16 184.366 9.08 184.666 8.96C184.946 8.86 185.166 8.72 185.346 8.54C185.506 8.38 185.606 8.18 185.606 7.94C185.606 7.7 185.506 7.5 185.346 7.32C185.146 7.16 184.926 7 184.646 6.88C184.346 6.78 184.006 6.7 183.646 6.64C183.266 6.6 182.886 6.58 182.526 6.58ZM198.455 2V16.28H207.435V17.92H196.455V2H198.455ZM211.695 18.12H209.695V1.6H211.695V18.12ZM225.438 17.92H214.658V2H225.238V3.64H216.658V16.28H225.438V17.92ZM229.298 8.16H231.638V9.8H229.298V18.12H227.298V1.6H229.298V8.16ZM236.066 18.24H233.866V16.1H236.066V18.24Z" fill="#F4F4F4"/>
<path d="M10.5905 15L10.7781 15.0691L10.7786 15.0679L10.5905 15ZM9.53047 16.82L9.66901 16.9648L9.6779 16.9551L9.53047 16.82ZM7.99047 17.82L8.05573 18.0092L8.0636 18.0062L7.99047 17.82ZM4.41047 17.82L4.33952 18.007L4.3432 18.0083L4.41047 17.82ZM2.91047 16.82L2.76301 16.9552L2.7658 16.9581L2.91047 16.82ZM1.87047 15L2.06159 14.9396L2.05687 14.9275L1.87047 15ZM1.87047 9.64L2.05768 9.71083L2.06021 9.70325L1.87047 9.64ZM2.91047 7.84L2.76577 7.70188L2.76304 7.70485L2.91047 7.84ZM4.41047 6.84L4.34319 6.65162L4.33954 6.653L4.41047 6.84ZM7.99047 6.84L8.06366 6.65368L8.05567 6.65092L7.99047 6.84ZM9.53047 7.84L9.67822 7.70456L9.66871 7.69547L9.53047 7.84ZM10.5905 9.64L10.7793 9.57367L10.7769 9.56751L10.5905 9.64ZM12.8905 18.12H12.6905V18.32H12.8905V18.12ZM12.8905 1.6V1.4H12.6905V1.6H12.8905ZM14.8905 1.6H15.0905V1.4H14.8905V1.6ZM14.8905 9.12H14.6905V9.4006L14.9557 9.30906L14.8905 9.12ZM17.1505 8.34L17.2157 8.52906L17.3505 8.48255V8.34H17.1505ZM17.1505 1.6V1.4H16.9505V1.6H17.1505ZM19.1505 1.6H19.3505V1.4H19.1505V1.6ZM19.1505 18.12V18.32H19.3505V18.12H19.1505ZM17.1505 18.12H16.9505V18.32H17.1505V18.12ZM17.1505 10H17.3505V9.7194L17.0852 9.81094L17.1505 10ZM14.8905 10.78L14.8252 10.5909L14.6905 10.6375V10.78H14.8905ZM14.8905 18.12V18.32H15.0905V18.12H14.8905ZM4.21047 15.42L4.3755 15.3068L4.3716 15.3015L4.21047 15.42ZM8.19047 15.42L8.34883 15.5422L8.34934 15.5415L8.19047 15.42ZM8.77047 10.5L8.96535 10.455L8.96348 10.4469L8.96095 10.439L8.77047 10.5ZM8.19047 9.2L8.35723 9.08883L8.34934 9.07851L8.19047 9.2ZM7.31047 8.42L7.40852 8.24568L7.4022 8.24213L7.39563 8.23904L7.31047 8.42ZM4.21047 9.2L4.04707 9.08466L4.0462 9.08592L4.21047 9.2ZM0.970469 3.2V3H0.770469V3.2H0.970469ZM5.21047 3.2V3.4H5.41047V3.2H5.21047ZM5.21047 1.04V0.839999H5.01047V1.04H5.21047ZM7.21047 1.04H7.41047V0.839999H7.21047V1.04ZM7.21047 3.2H7.01047V3.4H7.21047V3.2ZM11.4705 3.2H11.6705V3H11.4705V3.2ZM11.4705 4.84V5.04H11.6705V4.84H11.4705ZM0.970469 4.84H0.770469V5.04H0.970469V4.84ZM10.7905 12.32C10.7905 13.3636 10.6525 14.2394 10.4024 14.9321L10.7786 15.0679C11.0485 14.3205 11.1905 13.3964 11.1905 12.32H10.7905ZM10.4028 14.9309C10.1299 15.6716 9.80207 16.2277 9.38304 16.6849L9.6779 16.9551C10.1389 16.4523 10.4911 15.8484 10.7781 15.0691L10.4028 14.9309ZM9.39223 16.6755C8.94942 17.099 8.45116 17.4241 7.91734 17.6339L8.0636 18.0062C8.64978 17.7759 9.19152 17.421 9.66871 16.9645L9.39223 16.6755ZM7.92527 17.6309C7.36612 17.8237 6.78815 17.92 6.21047 17.92V18.32C6.83279 18.32 7.45481 18.2163 8.05567 18.0091L7.92527 17.6309ZM6.21047 17.92C5.59164 17.92 5.01456 17.8234 4.47774 17.6317L4.3432 18.0083C4.92638 18.2166 5.5493 18.32 6.21047 18.32V17.92ZM4.4814 17.633C3.93051 17.424 3.45542 17.1012 3.05514 16.6819L2.7658 16.9581C3.20552 17.4188 3.73042 17.776 4.33954 18.007L4.4814 17.633ZM3.0579 16.6849C2.63685 16.2255 2.29206 15.6709 2.06119 14.9398L1.67975 15.0602C1.92888 15.8491 2.30409 16.4545 2.76304 16.9551L3.0579 16.6849ZM2.05687 14.9275C1.78946 14.2399 1.67047 13.3676 1.67047 12.32H1.27047C1.27047 13.3924 1.39147 14.3201 1.68407 15.0725L2.05687 14.9275ZM1.67047 12.32C1.67047 11.2933 1.78924 10.4198 2.05753 9.71078L1.68341 9.56922C1.39169 10.3402 1.27047 11.2667 1.27047 12.32H1.67047ZM2.06021 9.70325C2.29164 9.00893 2.63759 8.43367 3.0579 7.97514L2.76304 7.70485C2.30335 8.20633 1.9293 8.83107 1.68073 9.57675L2.06021 9.70325ZM3.05514 7.97809C3.45542 7.55876 3.93051 7.23596 4.4814 7.027L4.33954 6.653C3.73042 6.88404 3.20552 7.24124 2.7658 7.7019L3.05514 7.97809ZM4.47774 7.02835C5.01872 6.83514 5.59597 6.72 6.21047 6.72V6.32C5.54497 6.32 4.92222 6.44486 4.3432 6.65165L4.47774 7.02835ZM6.21047 6.72C6.78397 6.72 7.36174 6.83475 7.92527 7.02907L8.05567 6.65092C7.4592 6.44524 6.83697 6.32 6.21047 6.32V6.72ZM7.91734 7.02615C8.45116 7.23587 8.94942 7.56098 9.39223 7.98453L9.66871 7.69547C9.19152 7.23902 8.64978 6.88413 8.0636 6.65385L7.91734 7.02615ZM9.38304 7.97514C9.80147 8.43162 10.1301 9.0079 10.4041 9.71249L10.7769 9.56751C10.4909 8.8321 10.1395 8.20838 9.6779 7.70485L9.38304 7.97514ZM10.4018 9.7063C10.6527 10.4204 10.7905 11.2971 10.7905 12.32H11.1905C11.1905 11.2629 11.0483 10.3396 10.7792 9.5737L10.4018 9.7063ZM13.0905 18.12V1.6H12.6905V18.12H13.0905ZM12.8905 1.8H14.8905V1.4H12.8905V1.8ZM14.6905 1.6V9.12H15.0905V1.6H14.6905ZM14.9557 9.30906L17.2157 8.52906L17.0852 8.15094L14.8252 8.93094L14.9557 9.30906ZM17.3505 8.34V1.6H16.9505V8.34H17.3505ZM17.1505 1.8H19.1505V1.4H17.1505V1.8ZM18.9505 1.6V18.12H19.3505V1.6H18.9505ZM19.1505 17.92H17.1505V18.32H19.1505V17.92ZM17.3505 18.12V10H16.9505V18.12H17.3505ZM17.0852 9.81094L14.8252 10.5909L14.9557 10.9691L17.2157 10.1891L17.0852 9.81094ZM14.6905 10.78V18.12H15.0905V10.78H14.6905ZM14.8905 17.92H12.8905V18.32H14.8905V17.92ZM3.27047 12.32C3.27047 13.7159 3.51185 14.8075 4.04934 15.5385L4.3716 15.3015C3.90908 14.6725 3.67047 13.6841 3.67047 12.32H3.27047ZM4.04552 15.5331C4.56241 16.2869 5.30381 16.68 6.21047 16.68V16.28C5.43713 16.28 4.81853 15.9531 4.37541 15.3069L4.04552 15.5331ZM6.21047 16.68C7.06294 16.68 7.77785 16.2823 8.34883 15.5422L8.03211 15.2978C7.52309 15.9577 6.918 16.28 6.21047 16.28V16.68ZM8.34934 15.5415C8.90825 14.8106 9.17047 13.7183 9.17047 12.3H8.77047C8.77047 13.6817 8.51268 14.6694 8.0316 15.2985L8.34934 15.5415ZM9.17047 12.3C9.17047 11.6041 9.08858 10.9891 8.96535 10.455L8.57559 10.545C8.69236 11.0509 8.77047 11.6359 8.77047 12.3H9.17047ZM8.96095 10.439C8.79873 9.9321 8.61199 9.47172 8.35688 9.08906L8.02406 9.31094C8.24895 9.64828 8.42221 10.0679 8.57998 10.561L8.96095 10.439ZM8.34934 9.07851C8.07408 8.71855 7.75386 8.43994 7.40852 8.24568L7.21242 8.59431C7.50708 8.76006 7.78686 9.00145 8.0316 9.32149L8.34934 9.07851ZM7.39563 8.23904C7.03465 8.06916 6.64558 7.96 6.21047 7.96V8.36C6.57535 8.36 6.90629 8.45084 7.22531 8.60096L7.39563 8.23904ZM6.21047 7.96C5.30449 7.96 4.56397 8.35239 4.04708 9.08466L4.37386 9.31534C4.81697 8.68761 5.43645 8.36 6.21047 8.36V7.96ZM4.0462 9.08592C3.51277 9.85405 3.27047 10.9417 3.27047 12.32H3.67047C3.67047 10.9783 3.90817 9.98595 4.37474 9.31408L4.0462 9.08592ZM0.970469 3.4H5.21047V3H0.970469V3.4ZM5.41047 3.2V1.04H5.01047V3.2H5.41047ZM5.21047 1.24H7.21047V0.839999H5.21047V1.24ZM7.01047 1.04V3.2H7.41047V1.04H7.01047ZM7.21047 3.4H11.4705V3H7.21047V3.4ZM11.2705 3.2V4.84H11.6705V3.2H11.2705ZM11.4705 4.64H0.970469V5.04H11.4705V4.64ZM1.17047 4.84V3.2H0.770469V4.84H1.17047ZM25.765 18.7L25.73 18.8969L25.7336 18.8975L25.765 18.7ZM23.485 18.04L23.4001 18.2211L23.4027 18.2223L23.485 18.04ZM22.025 16.94L22.1868 16.8223L22.1825 16.8167L22.025 16.94ZM22.025 13.78L22.1826 13.9033L22.1867 13.8976L22.025 13.78ZM23.485 12.68L23.4027 12.4977L23.4001 12.4989L23.485 12.68ZM25.765 12.04L25.7336 11.8425L25.73 11.8431L25.765 12.04ZM31.805 12.04L31.8408 11.8432L31.8357 11.8424L31.805 12.04ZM34.105 12.68L34.1922 12.4998L34.1852 12.4968L34.105 12.68ZM35.565 13.78L35.7292 13.6658L35.7247 13.6594L35.7198 13.6534L35.565 13.78ZM35.565 16.94L35.7198 17.0666L35.7247 17.0606L35.7292 17.0542L35.565 16.94ZM34.105 18.04L34.1852 18.2234L34.1921 18.22L34.105 18.04ZM31.805 18.7L31.8358 18.8977L31.8408 18.8968L31.805 18.7ZM31.605 1.8H31.805V1.6H31.605V1.8ZM31.605 3.44V3.64H31.805V3.44H31.605ZM23.025 3.44V3.24H22.825V3.44H23.025ZM23.025 8.98H22.825V9.18H23.025V8.98ZM31.805 8.98H32.005V8.78H31.805V8.98ZM31.805 10.62V10.82H32.005V10.62H31.805ZM21.025 10.62H20.825V10.82H21.025V10.62ZM21.025 1.8V1.6H20.825V1.8H21.025ZM30.965 17.16L30.9891 17.3585L30.9898 17.3585L30.965 17.16ZM32.625 16.8L32.6883 16.9898L32.6933 16.988L32.625 16.8ZM33.685 16.2L33.8208 16.3471L33.8264 16.3414L33.685 16.2ZM33.685 14.52L33.8264 14.3786L33.8205 14.3727L33.8142 14.3673L33.685 14.52ZM32.625 13.94L32.6934 13.752L32.6882 13.7503L32.625 13.94ZM30.965 13.58L30.9898 13.3815L30.9891 13.3815L30.965 13.58ZM26.605 13.58L26.6291 13.7785L26.6298 13.7785L26.605 13.58ZM24.945 13.94L25.0083 14.1298L25.0133 14.128L24.945 13.94ZM23.885 14.52L23.7499 14.3726L23.7493 14.373L23.885 14.52ZM23.885 16.2L24.0265 16.0585L24.0207 16.053L23.885 16.2ZM24.945 16.8L25.0134 16.612L25.0082 16.6103L24.945 16.8ZM26.605 17.16L26.6298 16.9615L26.6291 16.9615L26.605 17.16ZM35.665 6.68V6.48H35.465V6.68H35.665ZM35.665 11.32V11.52H35.865V11.32H35.665ZM33.665 11.32H33.465V11.52H33.665V11.32ZM33.665 1.6V1.4H33.465V1.6H33.665ZM35.665 1.6H35.865V1.4H35.665V1.6ZM35.665 5.04H35.465V5.24H35.665V5.04ZM38.005 5.04H38.205V4.84H38.005V5.04ZM38.005 6.68V6.88H38.205V6.68H38.005ZM28.785 18.72C27.6742 18.72 26.6648 18.6406 25.7964 18.5025L25.7336 18.8975C26.6252 19.0394 27.6558 19.12 28.785 19.12V18.72ZM25.8 18.5031C24.9111 18.3451 24.1681 18.129 23.5673 17.8577L23.4027 18.2223C24.0419 18.511 24.8189 18.7349 25.73 18.8969L25.8 18.5031ZM23.5699 17.8589C22.9468 17.5668 22.4796 17.225 22.1867 16.8224L21.8633 17.0576C22.2104 17.535 22.7432 17.9132 23.4001 18.2211L23.5699 17.8589ZM22.1825 16.8167C21.8532 16.396 21.705 15.9208 21.705 15.36H21.305C21.305 15.9992 21.4768 16.564 21.8675 17.0633L22.1825 16.8167ZM21.705 15.36C21.705 14.7992 21.8532 14.324 22.1825 13.9033L21.8675 13.6567C21.4768 14.156 21.305 14.7208 21.305 15.36H21.705ZM22.1867 13.8976C22.4796 13.495 22.9468 13.1532 23.5699 12.8611L23.4001 12.4989C22.7432 12.8068 22.2104 13.185 21.8633 13.6624L22.1867 13.8976ZM23.5673 12.8623C24.1657 12.5921 24.9073 12.3956 25.8 12.2369L25.73 11.8431C24.8227 12.0044 24.0443 12.2079 23.4027 12.4977L23.5673 12.8623ZM25.7964 12.2375C26.6648 12.0994 27.6742 12.02 28.785 12.02V11.62C27.6558 11.62 26.6252 11.7006 25.7336 11.8425L25.7964 12.2375ZM28.785 12.02C29.8954 12.02 30.8851 12.0993 31.7743 12.2376L31.8357 11.8424C30.9249 11.7007 29.9146 11.62 28.785 11.62V12.02ZM31.7692 12.2368C32.6429 12.3956 33.4055 12.5923 34.0248 12.8632L34.1852 12.4968C33.5245 12.2077 32.7271 12.0044 31.8408 11.8432L31.7692 12.2368ZM34.0179 12.86C34.6176 13.1502 35.0723 13.4937 35.4102 13.9066L35.7198 13.6534C35.3377 13.1863 34.8324 12.8098 34.1921 12.5L34.0179 12.86ZM35.4008 13.8942C35.699 14.3228 35.865 14.8034 35.865 15.36H36.265C36.265 14.7166 36.071 14.1572 35.7292 13.6658L35.4008 13.8942ZM35.865 15.36C35.865 15.9166 35.699 16.3972 35.4008 16.8258L35.7292 17.0542C36.071 16.5628 36.265 16.0034 36.265 15.36H35.865ZM35.4102 16.8134C35.0723 17.2263 34.6176 17.5698 34.0179 17.86L34.1921 18.22C34.8324 17.9102 35.3377 17.5337 35.7198 17.0666L35.4102 16.8134ZM34.0248 17.8568C33.4031 18.1288 32.639 18.3451 31.7692 18.5032L31.8408 18.8968C32.731 18.7349 33.5269 18.5112 34.1852 18.2232L34.0248 17.8568ZM31.7743 18.5024C30.8851 18.6407 29.8954 18.72 28.785 18.72V19.12C29.9146 19.12 30.9249 19.0393 31.8357 18.8976L31.7743 18.5024ZM31.405 1.8V3.44H31.805V1.8H31.405ZM31.605 3.24H23.025V3.64H31.605V3.24ZM22.825 3.44V8.98H23.225V3.44H22.825ZM23.025 9.18H31.805V8.78H23.025V9.18ZM31.605 8.98V10.62H32.005V8.98H31.605ZM31.805 10.42H21.025V10.82H31.805V10.42ZM21.225 10.62V1.8H20.825V10.62H21.225ZM21.025 2H31.605V1.6H21.025V2ZM28.785 17.48C29.5916 17.48 30.3198 17.4397 30.9891 17.3585L30.9409 16.9615C30.2902 17.0403 29.5784 17.08 28.785 17.08V17.48ZM30.9898 17.3585C31.6406 17.2771 32.1937 17.1546 32.6882 16.9897L32.5618 16.6103C32.0963 16.7654 31.5694 16.8829 30.9402 16.9615L30.9898 17.3585ZM32.6933 16.988C33.1488 16.8223 33.5349 16.6107 33.8207 16.347L33.5493 16.053C33.3151 16.2693 32.9812 16.4577 32.5567 16.612L32.6933 16.988ZM33.8264 16.3414C34.0949 16.0729 34.265 15.7445 34.265 15.36H33.865C33.865 15.6155 33.7551 15.8471 33.5436 16.0586L33.8264 16.3414ZM34.265 15.36C34.265 14.9755 34.0949 14.6471 33.8264 14.3786L33.5436 14.6614C33.7551 14.8729 33.865 15.1045 33.865 15.36H34.265ZM33.8142 14.3673C33.5317 14.1283 33.1493 13.9178 32.6933 13.752L32.5567 14.128C32.9807 14.2822 33.3183 14.4717 33.5558 14.6727L33.8142 14.3673ZM32.6882 13.7503C32.1937 13.5854 31.6406 13.4629 30.9898 13.3815L30.9402 13.7785C31.5694 13.8571 32.0963 13.9746 32.5618 14.1297L32.6882 13.7503ZM30.9891 13.3815C30.3198 13.3003 29.5916 13.26 28.785 13.26V13.66C29.5784 13.66 30.2902 13.6997 30.9409 13.7785L30.9891 13.3815ZM28.785 13.26C27.9788 13.26 27.2303 13.3003 26.5802 13.3815L26.6298 13.7785C27.2597 13.6997 27.9912 13.66 28.785 13.66V13.26ZM26.5809 13.3815C25.9122 13.4625 25.3359 13.585 24.8767 13.752L25.0133 14.128C25.4341 13.975 25.9778 13.8575 26.6291 13.7785L26.5809 13.3815ZM24.8818 13.7503C24.3815 13.917 24.0151 14.1295 23.7499 14.3726L24.0201 14.6674C24.2349 14.4705 24.5485 14.283 25.0082 14.1297L24.8818 13.7503ZM23.7493 14.373C23.4499 14.6495 23.305 14.9821 23.305 15.36H23.705C23.705 15.0979 23.8001 14.8705 24.0207 14.667L23.7493 14.373ZM23.305 15.36C23.305 15.7379 23.4499 16.0705 23.7493 16.347L24.0207 16.053C23.8001 15.8495 23.705 15.6221 23.705 15.36H23.305ZM23.7436 16.3414C24.0117 16.6096 24.3819 16.8231 24.8818 16.9897L25.0082 16.6103C24.5481 16.4569 24.2383 16.2704 24.0264 16.0586L23.7436 16.3414ZM24.8767 16.988C25.3359 17.155 25.9122 17.2775 26.5809 17.3585L26.6291 16.9615C25.9778 16.8825 25.4341 16.765 25.0133 16.612L24.8767 16.988ZM26.5802 17.3585C27.2303 17.4397 27.9788 17.48 28.785 17.48V17.08C27.9912 17.08 27.2597 17.0403 26.6298 16.9615L26.5802 17.3585ZM35.465 6.68V11.32H35.865V6.68H35.465ZM35.665 11.12H33.665V11.52H35.665V11.12ZM33.865 11.32V1.6H33.465V11.32H33.865ZM33.665 1.8H35.665V1.4H33.665V1.8ZM35.465 1.6V5.04H35.865V1.6H35.465ZM35.665 5.24H38.005V4.84H35.665V5.24ZM37.805 5.04V6.68H38.205V5.04H37.805ZM38.005 6.48H35.665V6.88H38.005V6.48ZM44.2136 16.06V16.26H44.4136V16.06H44.2136ZM44.2136 12.78H44.4136V12.58H44.2136V12.78ZM39.7736 12.78H39.5736V12.98H39.7736V12.78ZM39.7736 2V1.8H39.5736V2H39.7736ZM50.5936 2H50.7936V1.8H50.5936V2ZM50.5936 3.64V3.84H50.7936V3.64H50.5936ZM41.7736 3.64V3.44H41.5736V3.64H41.7736ZM41.7736 11.14H41.5736V11.34H41.7736V11.14ZM50.7936 11.14H50.9936V10.94H50.7936V11.14ZM50.7936 12.78V12.98H50.9936V12.78H50.7936ZM46.2136 12.78V12.58H46.0136V12.78H46.2136ZM46.2136 16.06H46.0136V16.26H46.2136V16.06ZM51.7536 16.06H51.9536V15.86H51.7536V16.06ZM51.7536 17.7V17.9H51.9536V17.7H51.7536ZM39.0736 17.7H38.8736V17.9H39.0736V17.7ZM39.0736 16.06V15.86H38.8736V16.06H39.0736ZM55.0736 18.12V18.32H55.2736V18.12H55.0736ZM53.0736 18.12H52.8736V18.32H53.0736V18.12ZM53.0736 1.6V1.4H52.8736V1.6H53.0736ZM55.0736 1.6H55.2736V1.4H55.0736V1.6ZM44.4136 16.06V12.78H44.0136V16.06H44.4136ZM44.2136 12.58H39.7736V12.98H44.2136V12.58ZM39.9736 12.78V2H39.5736V12.78H39.9736ZM39.7736 2.2H50.5936V1.8H39.7736V2.2ZM50.3936 2V3.64H50.7936V2H50.3936ZM50.5936 3.44H41.7736V3.84H50.5936V3.44ZM41.5736 3.64V11.14H41.9736V3.64H41.5736ZM41.7736 11.34H50.7936V10.94H41.7736V11.34ZM50.5936 11.14V12.78H50.9936V11.14H50.5936ZM50.7936 12.58H46.2136V12.98H50.7936V12.58ZM46.0136 12.78V16.06H46.4136V12.78H46.0136ZM46.2136 16.26H51.7536V15.86H46.2136V16.26ZM51.5536 16.06V17.7H51.9536V16.06H51.5536ZM51.7536 17.5H39.0736V17.9H51.7536V17.5ZM39.2736 17.7V16.06H38.8736V17.7H39.2736ZM39.0736 16.26H44.2136V15.86H39.0736V16.26ZM55.0736 17.92H53.0736V18.32H55.0736V17.92ZM53.2736 18.12V1.6H52.8736V18.12H53.2736ZM53.0736 1.8H55.0736V1.4H53.0736V1.8ZM54.8736 1.6V18.12H55.2736V1.6H54.8736ZM60.9567 1.8H61.1567V1.6H60.9567V1.8ZM60.9567 6.24H60.7567V6.44H60.9567V6.24ZM72.6967 6.24H72.8967V6.04H72.6967V6.24ZM72.6967 7.88V8.08H72.8967V7.88H72.6967ZM58.9567 7.88H58.7567V8.08H58.9567V7.88ZM58.9567 1.8V1.6H58.7567V1.8H58.9567ZM57.7767 9.9V9.7H57.5767V9.9H57.7767ZM73.8767 9.9H74.0767V9.7H73.8767V9.9ZM73.8767 11.54V11.74H74.0767V11.54H73.8767ZM57.7767 11.54H57.5767V11.74H57.7767V11.54ZM60.7567 13.02H60.9567V12.82H60.7567V13.02ZM60.7567 16.88H60.5567V17.08H60.7567V16.88ZM73.0967 16.88H73.2967V16.68H73.0967V16.88ZM73.0967 18.52V18.72H73.2967V18.52H73.0967ZM58.7567 18.52H58.5567V18.72H58.7567V18.52ZM58.7567 13.02V12.82H58.5567V13.02H58.7567ZM60.7567 1.8V6.24H61.1567V1.8H60.7567ZM60.9567 6.44H72.6967V6.04H60.9567V6.44ZM72.4967 6.24V7.88H72.8967V6.24H72.4967ZM72.6967 7.68H58.9567V8.08H72.6967V7.68ZM59.1567 7.88V1.8H58.7567V7.88H59.1567ZM58.9567 2H60.9567V1.6H58.9567V2ZM57.7767 10.1H73.8767V9.7H57.7767V10.1ZM73.6767 9.9V11.54H74.0767V9.9H73.6767ZM73.8767 11.34H57.7767V11.74H73.8767V11.34ZM57.9767 11.54V9.9H57.5767V11.54H57.9767ZM60.5567 13.02V16.88H60.9567V13.02H60.5567ZM60.7567 17.08H73.0967V16.68H60.7567V17.08ZM72.8967 16.88V18.52H73.2967V16.88H72.8967ZM73.0967 18.32H58.7567V18.72H73.0967V18.32ZM58.9567 18.52V13.02H58.5567V18.52H58.9567ZM58.7567 13.22H60.7567V12.82H58.7567V13.22ZM83.2398 8.2H83.0398V8.4H83.2398V8.2ZM88.8198 8.2V8.4H89.0198V8.2H88.8198ZM88.8198 2V1.8H88.6198V2H88.8198ZM90.8198 2H91.0198V1.8H90.8198V2ZM90.8198 17.92V18.12H91.0198V17.92H90.8198ZM81.2398 17.92H81.0398V18.12H81.2398V17.92ZM81.2398 2V1.8H81.0398V2H81.2398ZM83.2398 2H83.4398V1.8H83.2398V2ZM96.4798 18.12V18.32H96.6798V18.12H96.4798ZM94.4798 18.12H94.2798V18.32H94.4798V18.12ZM94.4798 9.94H94.6798V9.6582L94.4138 9.75121L94.4798 9.94ZM91.6198 10.94H91.4198V11.2218L91.6859 11.1288L91.6198 10.94ZM91.6198 9.38L91.5538 9.19121L91.4198 9.23806V9.38H91.6198ZM94.4798 8.38L94.5459 8.56879L94.6798 8.52194V8.38H94.4798ZM94.4798 1.6V1.4H94.2798V1.6H94.4798ZM96.4798 1.6H96.6798V1.4H96.4798V1.6ZM88.8198 9.84H89.0198V9.64H88.8198V9.84ZM83.2398 9.84V9.64H83.0398V9.84H83.2398ZM83.2398 16.28H83.0398V16.48H83.2398V16.28ZM88.8198 16.28V16.48H89.0198V16.28H88.8198ZM83.2398 8.4H88.8198V8H83.2398V8.4ZM89.0198 8.2V2H88.6198V8.2H89.0198ZM88.8198 2.2H90.8198V1.8H88.8198V2.2ZM90.6198 2V17.92H91.0198V2H90.6198ZM90.8198 17.72H81.2398V18.12H90.8198V17.72ZM81.4398 17.92V2H81.0398V17.92H81.4398ZM81.2398 2.2H83.2398V1.8H81.2398V2.2ZM83.0398 2V8.2H83.4398V2H83.0398ZM96.4798 17.92H94.4798V18.32H96.4798V17.92ZM94.6798 18.12V9.94H94.2798V18.12H94.6798ZM94.4138 9.75121L91.5538 10.7512L91.6859 11.1288L94.5459 10.1288L94.4138 9.75121ZM91.8198 10.94V9.38H91.4198V10.94H91.8198ZM91.6859 9.56879L94.5459 8.56879L94.4138 8.19121L91.5538 9.19121L91.6859 9.56879ZM94.6798 8.38V1.6H94.2798V8.38H94.6798ZM94.4798 1.8H96.4798V1.4H94.4798V1.8ZM96.2798 1.6V18.12H96.6798V1.6H96.2798ZM88.8198 9.64H83.2398V10.04H88.8198V9.64ZM83.0398 9.84V16.28H83.4398V9.84H83.0398ZM83.2398 16.48H88.8198V16.08H83.2398V16.48ZM89.0198 16.28V9.84H88.6198V16.28H89.0198ZM114.303 7.92H114.503V7.72H114.303V7.92ZM114.303 9.56V9.76H114.503V9.56H114.303ZM100.363 9.56H100.163V9.76H100.363V9.56ZM100.363 1.78V1.58H100.163V1.78H100.363ZM114.103 1.78H114.303V1.58H114.103V1.78ZM114.103 3.42V3.62H114.303V3.42H114.103ZM102.363 3.42V3.22H102.163V3.42H102.363ZM102.363 4.86H102.163V5.06H102.363V4.86ZM114.103 4.86H114.303V4.66H114.103V4.86ZM114.103 6.5V6.7H114.303V6.5H114.103ZM102.363 6.5V6.3H102.163V6.5H102.363ZM102.363 7.92H102.163V8.12H102.363V7.92ZM102.163 13.82H102.363V13.62H102.163V13.82ZM102.163 16.88H101.963V17.08H102.163V16.88ZM114.503 16.88H114.703V16.68H114.503V16.88ZM114.503 18.52V18.72H114.703V18.52H114.503ZM100.163 18.52H99.963V18.72H100.163V18.52ZM100.163 13.82V13.62H99.963V13.82H100.163ZM99.183 10.9V10.7H98.983V10.9H99.183ZM115.283 10.9H115.483V10.7H115.283V10.9ZM115.283 12.54V12.74H115.483V12.54H115.283ZM99.183 12.54H98.983V12.74H99.183V12.54ZM114.103 7.92V9.56H114.503V7.92H114.103ZM114.303 9.36H100.363V9.76H114.303V9.36ZM100.563 9.56V1.78H100.163V9.56H100.563ZM100.363 1.98H114.103V1.58H100.363V1.98ZM113.903 1.78V3.42H114.303V1.78H113.903ZM114.103 3.22H102.363V3.62H114.103V3.22ZM102.163 3.42V4.86H102.563V3.42H102.163ZM102.363 5.06H114.103V4.66H102.363V5.06ZM113.903 4.86V6.5H114.303V4.86H113.903ZM114.103 6.3H102.363V6.7H114.103V6.3ZM102.163 6.5V7.92H102.563V6.5H102.163ZM102.363 8.12H114.303V7.72H102.363V8.12ZM101.963 13.82V16.88H102.363V13.82H101.963ZM102.163 17.08H114.503V16.68H102.163V17.08ZM114.303 16.88V18.52H114.703V16.88H114.303ZM114.503 18.32H100.163V18.72H114.503V18.32ZM100.363 18.52V13.82H99.963V18.52H100.363ZM100.163 14.02H102.163V13.62H100.163V14.02ZM99.183 11.1H115.283V10.7H99.183V11.1ZM115.083 10.9V12.54H115.483V10.9H115.083ZM115.283 12.34H99.183V12.74H115.283V12.34ZM99.383 12.54V10.9H98.983V12.54H99.383ZM122.641 7.16L122.669 6.96169L122.66 6.96082L122.641 7.16ZM120.421 6.66L120.496 6.47423L120.49 6.47222L120.421 6.66ZM119.041 5.74L119.198 5.61489L119.191 5.60713L119.041 5.74ZM119.041 2.96L118.892 2.82695L118.885 2.83506L119.041 2.96ZM120.421 2.04L120.353 1.85215L120.347 1.8543L120.421 2.04ZM122.641 1.54L122.623 1.34068L122.614 1.34183L122.641 1.54ZM128.521 1.54L128.549 1.34169L128.54 1.34082L128.521 1.54ZM130.761 2.04L130.836 1.85408L130.826 1.85086L130.761 2.04ZM132.201 2.96L132.358 2.83506L132.351 2.82641L132.343 2.81858L132.201 2.96ZM132.221 5.74L132.072 5.60695L132.065 5.61506L132.221 5.74ZM130.841 6.66L130.773 6.47219L130.769 6.47349L130.841 6.66ZM128.621 7.16L128.603 6.96068L128.594 6.96183L128.621 7.16ZM129.441 5.38L129.399 5.18439L129.395 5.18544L129.441 5.38ZM129.441 3.32L129.488 3.12539L129.483 3.12444L129.441 3.32ZM121.821 3.32L121.779 3.12462L121.775 3.12544L121.821 3.32ZM121.821 5.38L121.869 5.18562L121.863 5.18444L121.821 5.38ZM117.581 8.72V8.52H117.381V8.72H117.581ZM133.681 8.72H133.881V8.52H133.681V8.72ZM133.681 10.36V10.56H133.881V10.36H133.681ZM117.581 10.36H117.381V10.56H117.581V10.36ZM130.701 14.24V14.44H130.901V14.24H130.701ZM130.701 13.22H130.901V13.02H130.701V13.22ZM118.561 13.22H118.361V13.42H118.561V13.22ZM118.561 11.58V11.38H118.361V11.58H118.561ZM132.701 11.58H132.901V11.38H132.701V11.58ZM132.701 15.88V16.08H132.901V15.88H132.701ZM120.561 15.88V15.68H120.361V15.88H120.561ZM120.561 16.88H120.361V17.08H120.561V16.88ZM132.901 16.88H133.101V16.68H132.901V16.88ZM132.901 18.52V18.72H133.101V18.52H132.901ZM118.561 18.52H118.361V18.72H118.561V18.52ZM118.561 14.24V14.04H118.361V14.24H118.561ZM125.621 7.12C124.505 7.12 123.516 7.08003 122.669 6.96192L122.614 7.35808C123.487 7.47997 124.498 7.52 125.621 7.52V7.12ZM122.66 6.96082C121.796 6.88233 121.075 6.70617 120.496 6.4743L120.347 6.8457C120.967 7.09383 121.727 7.27767 122.623 7.35918L122.66 6.96082ZM120.49 6.47222C119.914 6.26091 119.489 5.97883 119.198 5.61506L118.885 5.86494C119.234 6.30117 119.729 6.61909 120.353 6.84777L120.49 6.47222ZM119.191 5.60713C118.909 5.2896 118.761 4.87948 118.761 4.36H118.361C118.361 4.96052 118.534 5.4704 118.892 5.87287L119.191 5.60713ZM118.761 4.36C118.761 3.86371 118.907 3.44817 119.198 3.08494L118.885 2.83506C118.536 3.27183 118.361 3.77629 118.361 4.36H118.761ZM119.191 3.09287C119.487 2.75987 119.919 2.45621 120.496 2.2257L120.347 1.8543C119.723 2.10379 119.236 2.44012 118.892 2.82713L119.191 3.09287ZM120.49 2.22777C121.071 2.01471 121.796 1.85719 122.668 1.73817L122.614 1.34183C121.727 1.46281 120.971 1.62529 120.353 1.85222L120.49 2.22777ZM122.66 1.73914C123.515 1.65961 124.509 1.6 125.621 1.6V1.2C124.494 1.2 123.488 1.26038 122.623 1.34086L122.66 1.73914ZM125.621 1.6C126.674 1.6 127.627 1.65956 128.503 1.73918L128.54 1.34082C127.655 1.26044 126.689 1.2 125.621 1.2V1.6ZM128.494 1.73808C129.346 1.85699 130.072 2.01465 130.696 2.22914L130.826 1.85086C130.17 1.62534 129.417 1.46301 128.549 1.34192L128.494 1.73808ZM130.687 2.2257C131.264 2.45662 131.721 2.76236 132.06 3.10142L132.343 2.81858C131.962 2.43764 131.458 2.10338 130.836 1.8543L130.687 2.2257ZM132.045 3.08494C132.339 3.45243 132.501 3.86905 132.501 4.36H132.901C132.901 3.77095 132.704 3.26757 132.358 2.83506L132.045 3.08494ZM132.501 4.36C132.501 4.87948 132.354 5.2896 132.072 5.60713L132.371 5.87287C132.729 5.4704 132.901 4.96052 132.901 4.36H132.501ZM132.065 5.61506C131.774 5.97883 131.349 6.26091 130.773 6.47222L130.91 6.84777C131.534 6.61909 132.029 6.30117 132.378 5.86494L132.065 5.61506ZM130.769 6.47349C130.168 6.70632 129.446 6.88244 128.603 6.96086L128.64 7.35914C129.517 7.27756 130.275 7.09368 130.914 6.84651L130.769 6.47349ZM128.594 6.96183C127.727 7.08005 126.738 7.12 125.621 7.12V7.52C126.745 7.52 127.755 7.47995 128.648 7.35817L128.594 6.96183ZM125.621 5.88C127.325 5.88 128.624 5.78018 129.488 5.57456L129.395 5.18544C128.579 5.37982 127.318 5.48 125.621 5.48V5.88ZM129.483 5.57556C129.918 5.48245 130.268 5.34354 130.512 5.14545C130.765 4.94098 130.901 4.67571 130.901 4.36H130.501C130.501 4.54429 130.428 4.69902 130.261 4.83455C130.085 4.97646 129.805 5.09755 129.4 5.18444L129.483 5.57556ZM130.901 4.36C130.901 4.05264 130.764 3.78892 130.514 3.58136C130.271 3.37885 129.923 3.22913 129.488 3.12544L129.395 3.51456C129.8 3.61087 130.081 3.74114 130.258 3.88864C130.429 4.03108 130.501 4.18736 130.501 4.36H130.901ZM129.483 3.12444C128.623 2.93999 127.326 2.84 125.621 2.84V3.24C127.317 3.24 128.58 3.34001 129.4 3.51556L129.483 3.12444ZM125.621 2.84C123.897 2.84 122.62 2.93995 121.779 3.12465L121.864 3.51535C122.663 3.34005 123.906 3.24 125.621 3.24V2.84ZM121.775 3.12544C121.34 3.22913 120.991 3.37885 120.748 3.58136C120.499 3.78892 120.361 4.05264 120.361 4.36H120.761C120.761 4.18736 120.834 4.03108 121.004 3.88864C121.181 3.74114 121.463 3.61087 121.868 3.51456L121.775 3.12544ZM120.361 4.36C120.361 4.67571 120.498 4.94098 120.751 5.14545C120.995 5.34354 121.345 5.48245 121.78 5.57556L121.863 5.18444C121.458 5.09755 121.178 4.97646 121.002 4.83455C120.835 4.69902 120.761 4.54429 120.761 4.36H120.361ZM121.774 5.5743C122.618 5.78024 123.898 5.88 125.621 5.88V5.48C123.905 5.48 122.664 5.37976 121.869 5.1857L121.774 5.5743ZM117.581 8.92H133.681V8.52H117.581V8.92ZM133.481 8.72V10.36H133.881V8.72H133.481ZM133.681 10.16H117.581V10.56H133.681V10.16ZM117.781 10.36V8.72H117.381V10.36H117.781ZM130.901 14.24V13.22H130.501V14.24H130.901ZM130.701 13.02H118.561V13.42H130.701V13.02ZM118.761 13.22V11.58H118.361V13.22H118.761ZM118.561 11.78H132.701V11.38H118.561V11.78ZM132.501 11.58V15.88H132.901V11.58H132.501ZM132.701 15.68H120.561V16.08H132.701V15.68ZM120.361 15.88V16.88H120.761V15.88H120.361ZM120.561 17.08H132.901V16.68H120.561V17.08ZM132.701 16.88V18.52H133.101V16.88H132.701ZM132.901 18.32H118.561V18.72H132.901V18.32ZM118.761 18.52V14.24H118.361V18.52H118.761ZM118.561 14.44H130.701V14.04H118.561V14.44ZM153.905 14.14V14.34H154.105V14.14H153.905ZM153.905 13.02H154.105V12.82H153.905V13.02ZM141.765 13.02H141.565V13.22H141.765V13.02ZM141.765 11.38V11.18H141.565V11.38H141.765ZM155.905 11.38H156.105V11.18H155.905V11.38ZM155.905 15.78V15.98H156.105V15.78H155.905ZM143.765 15.78V15.58H143.565V15.78H143.765ZM143.765 16.88H143.565V17.08H143.765V16.88ZM156.105 16.88H156.305V16.68H156.105V16.88ZM156.105 18.52V18.72H156.305V18.52H156.105ZM141.765 18.52H141.565V18.72H141.765V18.52ZM141.765 14.14V13.94H141.565V14.14H141.765ZM153.705 7.68H153.505V7.88H153.705V7.68ZM153.705 6.54H153.905V6.34H153.705V6.54ZM141.965 6.54H141.765V6.74H141.965V6.54ZM141.965 4.9V4.7H141.765V4.9H141.965ZM153.705 4.9V5.1H153.905V4.9H153.705ZM153.705 3.44H153.905V3.24H153.705V3.44ZM141.965 3.44H141.765V3.64H141.965V3.44ZM141.965 1.8V1.6H141.765V1.8H141.965ZM155.705 1.8H155.905V1.6H155.705V1.8ZM155.705 7.68V7.88H155.905V7.68H155.705ZM140.785 8.62V8.42H140.585V8.62H140.785ZM156.885 8.62H157.085V8.42H156.885V8.62ZM156.885 10.26V10.46H157.085V10.26H156.885ZM140.785 10.26H140.585V10.46H140.785V10.26ZM154.105 14.14V13.02H153.705V14.14H154.105ZM153.905 12.82H141.765V13.22H153.905V12.82ZM141.965 13.02V11.38H141.565V13.02H141.965ZM141.765 11.58H155.905V11.18H141.765V11.58ZM155.705 11.38V15.78H156.105V11.38H155.705ZM155.905 15.58H143.765V15.98H155.905V15.58ZM143.565 15.78V16.88H143.965V15.78H143.565ZM143.765 17.08H156.105V16.68H143.765V17.08ZM155.905 16.88V18.52H156.305V16.88H155.905ZM156.105 18.32H141.765V18.72H156.105V18.32ZM141.965 18.52V14.14H141.565V18.52H141.965ZM141.765 14.34H153.905V13.94H141.765V14.34ZM153.905 7.68V6.54H153.505V7.68H153.905ZM153.705 6.34H141.965V6.74H153.705V6.34ZM142.165 6.54V4.9H141.765V6.54H142.165ZM141.965 5.1H153.705V4.7H141.965V5.1ZM153.905 4.9V3.44H153.505V4.9H153.905ZM153.705 3.24H141.965V3.64H153.705V3.24ZM142.165 3.44V1.8H141.765V3.44H142.165ZM141.965 2H155.705V1.6H141.965V2ZM155.505 1.8V7.68H155.905V1.8H155.505ZM155.705 7.48H153.705V7.88H155.705V7.48ZM140.785 8.82H156.885V8.42H140.785V8.82ZM156.685 8.62V10.26H157.085V8.62H156.685ZM156.885 10.06H140.785V10.46H156.885V10.06ZM140.985 10.26V8.62H140.585V10.26H140.985ZM159.443 3.44H159.243V3.64H159.443V3.44ZM159.443 1.8V1.6H159.243V1.8H159.443ZM169.423 1.8H169.623V1.6H169.423V1.8ZM169.423 7.44V7.64H169.623V7.44H169.423ZM161.443 7.44V7.24H161.243V7.44H161.443ZM161.443 9.78H161.243V9.98H161.443V9.78ZM169.823 9.78H170.023V9.58H169.823V9.78ZM169.823 11.42V11.62H170.023V11.42H169.823ZM159.443 11.42H159.243V11.62H159.443V11.42ZM159.443 5.8V5.6H159.243V5.8H159.443ZM167.423 5.8V6H167.623V5.8H167.423ZM167.423 3.44H167.623V3.24H167.423V3.44ZM174.683 1.6H174.883V1.4H174.683V1.6ZM174.683 11.52V11.72H174.883V11.52H174.683ZM172.683 11.52H172.483V11.72H172.683V11.52ZM172.683 1.6V1.4H172.483V1.6H172.683ZM172.683 18.52H172.483V18.72H172.683V18.52ZM172.683 14.26H172.883V14.06H172.683V14.26ZM160.283 14.26H160.083V14.46H160.283V14.26ZM160.283 12.62V12.42H160.083V12.62H160.283ZM174.683 12.62H174.883V12.42H174.683V12.62ZM174.683 18.52V18.72H174.883V18.52H174.683ZM159.643 3.44V1.8H159.243V3.44H159.643ZM159.443 2H169.423V1.6H159.443V2ZM169.223 1.8V7.44H169.623V1.8H169.223ZM169.423 7.24H161.443V7.64H169.423V7.24ZM161.243 7.44V9.78H161.643V7.44H161.243ZM161.443 9.98H169.823V9.58H161.443V9.98ZM169.623 9.78V11.42H170.023V9.78H169.623ZM169.823 11.22H159.443V11.62H169.823V11.22ZM159.643 11.42V5.8H159.243V11.42H159.643ZM159.443 6H167.423V5.6H159.443V6ZM167.623 5.8V3.44H167.223V5.8H167.623ZM167.423 3.24H159.443V3.64H167.423V3.24ZM174.483 1.6V11.52H174.883V1.6H174.483ZM174.683 11.32H172.683V11.72H174.683V11.32ZM172.883 11.52V1.6H172.483V11.52H172.883ZM172.683 1.8H174.683V1.4H172.683V1.8ZM172.883 18.52V14.26H172.483V18.52H172.883ZM172.683 14.06H160.283V14.46H172.683V14.06ZM160.483 14.26V12.62H160.083V14.26H160.483ZM160.283 12.82H174.683V12.42H160.283V12.82ZM174.483 12.62V18.52H174.883V12.62H174.483ZM174.683 18.32H172.683V18.72H174.683V18.32ZM180.486 12.1H180.686V11.9H180.486V12.1ZM180.486 13.66H180.286V13.86H180.486V13.66ZM190.286 13.66V13.86H190.486V13.66H190.286ZM190.286 12.1V11.9H190.086V12.1H190.286ZM192.286 12.1H192.486V11.9H192.286V12.1ZM192.286 18.52V18.72H192.486V18.52H192.286ZM178.486 18.52H178.286V18.72H178.486V18.52ZM178.486 12.1V11.9H178.286V12.1H178.486ZM184.606 5.12L184.644 4.92364L184.643 4.92342L184.606 5.12ZM186.226 5.68L186.328 5.50757L186.319 5.50268L186.226 5.68ZM187.246 6.62L187.415 6.51317L187.413 6.50906L187.246 6.62ZM187.246 9.28L187.08 9.16903L187.077 9.1732L187.246 9.28ZM186.226 10.2L186.319 10.3773L186.322 10.3756L186.226 10.2ZM184.606 10.74L184.643 10.9366L184.644 10.9364L184.606 10.74ZM180.466 10.74L180.505 10.5439L180.503 10.5434L180.466 10.74ZM178.866 10.2L178.962 10.0244L178.866 10.2ZM177.846 9.28L178.015 9.17317L178.012 9.16906L177.846 9.28ZM177.846 6.62L177.68 6.50903L177.677 6.5132L177.846 6.62ZM178.866 5.68L178.77 5.50432L178.764 5.50781L178.866 5.68ZM180.466 5.12L180.503 5.31659L180.505 5.31612L180.466 5.12ZM192.286 6.88V6.68H192.086V6.88H192.286ZM192.286 11V11.2H192.486V11H192.286ZM190.286 11H190.086V11.2H190.286V11ZM190.286 1.6V1.4H190.086V1.6H190.286ZM192.286 1.6H192.486V1.4H192.286V1.6ZM192.286 5.24H192.086V5.44H192.286V5.24ZM194.626 5.24H194.826V5.04H194.626V5.24ZM194.626 6.88V7.08H194.826V6.88H194.626ZM176.986 2.2V2H176.786V2.2H176.986ZM181.526 2.2V2.4H181.726V2.2H181.526ZM181.526 0.64V0.44H181.326V0.64H181.526ZM183.526 0.64H183.726V0.44H183.526V0.64ZM183.526 2.2H183.326V2.4H183.526V2.2ZM188.086 2.2H188.286V2H188.086V2.2ZM188.086 3.84V4.04H188.286V3.84H188.086ZM176.986 3.84H176.786V4.04H176.986V3.84ZM190.286 16.88V17.08H190.486V16.88H190.286ZM190.286 15.3H190.486V15.1H190.286V15.3ZM180.486 15.3V15.1H180.286V15.3H180.486ZM180.486 16.88H180.286V17.08H180.486V16.88ZM181.386 6.64L181.364 6.44101L181.355 6.44245L181.386 6.64ZM180.406 6.88L180.339 6.69129L180.327 6.69617L180.406 6.88ZM179.746 7.32L179.888 7.46142L179.746 7.32ZM179.746 8.54L179.896 8.40713L179.888 8.39833L179.879 8.39052L179.746 8.54ZM180.406 8.96L180.485 8.77582L180.473 8.77165L180.406 8.96ZM181.386 9.2L181.419 9.00236L181.407 9.0011L181.386 9.2ZM183.686 9.2L183.664 9.00101L183.655 9.00245L183.686 9.2ZM184.666 8.96L184.599 8.77152L184.592 8.7743L184.666 8.96ZM185.346 8.54L185.205 8.39858L185.346 8.54ZM185.346 7.32L185.496 7.18713L185.484 7.17443L185.471 7.16383L185.346 7.32ZM184.646 6.88L184.725 6.69617L184.717 6.69289L184.709 6.69026L184.646 6.88ZM183.646 6.64L183.679 6.44236L183.667 6.4411L183.646 6.64ZM180.286 12.1V13.66H180.686V12.1H180.286ZM180.486 13.86H190.286V13.46H180.486V13.86ZM190.486 13.66V12.1H190.086V13.66H190.486ZM190.286 12.3H192.286V11.9H190.286V12.3ZM192.086 12.1V18.52H192.486V12.1H192.086ZM192.286 18.32H178.486V18.72H192.286V18.32ZM178.686 18.52V12.1H178.286V18.52H178.686ZM178.486 12.3H180.486V11.9H178.486V12.3ZM182.526 5.14C183.275 5.14 183.943 5.19914 184.569 5.31657L184.643 4.92342C183.989 4.80086 183.297 4.74 182.526 4.74V5.14ZM184.568 5.31636C185.168 5.43256 185.69 5.62598 186.134 5.85732L186.319 5.50268C185.842 5.25402 185.284 5.04744 184.644 4.92364L184.568 5.31636ZM186.124 5.85218C186.541 6.09846 186.858 6.3984 187.08 6.73094L187.413 6.50906C187.154 6.1216 186.791 5.78154 186.328 5.50781L186.124 5.85218ZM187.077 6.7268C187.295 7.07132 187.406 7.47341 187.406 7.94H187.806C187.806 7.40659 187.678 6.92868 187.415 6.5132L187.077 6.7268ZM187.406 7.94C187.406 8.43033 187.293 8.84923 187.08 9.16906L187.413 9.39094C187.679 8.99077 187.806 8.48967 187.806 7.94H187.406ZM187.077 9.1732C186.858 9.51945 186.546 9.79767 186.13 10.0244L186.322 10.3756C186.786 10.1223 187.154 9.80055 187.415 9.3868L187.077 9.1732ZM186.134 10.0227C185.694 10.252 185.173 10.4266 184.568 10.5436L184.644 10.9364C185.279 10.8134 185.838 10.628 186.319 10.3773L186.134 10.0227ZM184.569 10.5434C183.943 10.6609 183.275 10.72 182.526 10.72V11.12C183.297 11.12 183.989 11.0591 184.643 10.9366L184.569 10.5434ZM182.526 10.72C181.776 10.72 181.089 10.6607 180.505 10.5439L180.427 10.9361C181.043 11.0593 181.756 11.12 182.526 11.12V10.72ZM180.503 10.5434C179.879 10.4265 179.38 10.2525 178.962 10.0244L178.77 10.3756C179.232 10.6275 179.773 10.8135 180.429 10.9366L180.503 10.5434ZM178.962 10.0244C178.546 9.79767 178.234 9.51945 178.015 9.1732L177.677 9.3868C177.938 9.80055 178.306 10.1223 178.77 10.3756L178.962 10.0244ZM178.012 9.16906C177.799 8.84923 177.686 8.43033 177.686 7.94H177.286C177.286 8.48967 177.413 8.99077 177.68 9.39094L178.012 9.16906ZM177.686 7.94C177.686 7.47341 177.798 7.07132 178.015 6.7268L177.677 6.5132C177.415 6.92868 177.286 7.40659 177.286 7.94H177.686ZM178.012 6.73094C178.234 6.3984 178.551 6.09846 178.968 5.85218L178.764 5.50781C178.301 5.78154 177.938 6.1216 177.68 6.50906L178.012 6.73094ZM178.962 5.85558C179.384 5.62538 179.884 5.43262 180.503 5.31657L180.429 4.92342C179.768 5.04738 179.228 5.25462 178.77 5.50442L178.962 5.85558ZM180.505 5.31612C181.089 5.19929 181.776 5.14 182.526 5.14V4.74C181.756 4.74 181.043 4.80071 180.427 4.92388L180.505 5.31612ZM192.086 6.88V11H192.486V6.88H192.086ZM192.286 10.8H190.286V11.2H192.286V10.8ZM190.486 11V1.6H190.086V11H190.486ZM190.286 1.8H192.286V1.4H190.286V1.8ZM192.086 1.6V5.24H192.486V1.6H192.086ZM192.286 5.44H194.626V5.04H192.286V5.44ZM194.426 5.24V6.88H194.826V5.24H194.426ZM194.626 6.68H192.286V7.08H194.626V6.68ZM176.986 2.4H181.526V2H176.986V2.4ZM181.726 2.2V0.64H181.326V2.2H181.726ZM181.526 0.84H183.526V0.44H181.526V0.84ZM183.326 0.64V2.2H183.726V0.64H183.326ZM183.526 2.4H188.086V2H183.526V2.4ZM187.886 2.2V3.84H188.286V2.2H187.886ZM188.086 3.64H176.986V4.04H188.086V3.64ZM177.186 3.84V2.2H176.786V3.84H177.186ZM190.486 16.88V15.3H190.086V16.88H190.486ZM190.286 15.1H180.486V15.5H190.286V15.1ZM180.286 15.3V16.88H180.686V15.3H180.286ZM180.486 17.08H190.286V16.68H180.486V17.08ZM182.526 6.38C182.119 6.38 181.732 6.40033 181.364 6.44122L181.408 6.83878C181.76 6.79967 182.133 6.78 182.526 6.78V6.38ZM181.355 6.44245C180.965 6.50402 180.633 6.58674 180.339 6.69165L180.473 7.06835C180.74 6.97326 181.047 6.89598 181.417 6.83755L181.355 6.44245ZM180.327 6.69617C180.023 6.82654 179.782 7.00122 179.605 7.17858L179.888 7.46142C180.03 7.31878 180.229 7.17346 180.485 7.06383L180.327 6.69617ZM179.605 7.17858C179.387 7.39601 179.286 7.64685 179.286 7.94H179.686C179.686 7.75315 179.745 7.60399 179.888 7.46142L179.605 7.17858ZM179.286 7.94C179.286 8.23109 179.386 8.48769 179.613 8.68948L179.879 8.39052C179.746 8.27231 179.686 8.12891 179.686 7.94H179.286ZM179.597 8.67287C179.784 8.88321 180.035 9.03967 180.339 9.14835L180.473 8.77165C180.218 8.68033 180.029 8.55679 179.896 8.40713L179.597 8.67287ZM180.327 9.14383C180.629 9.2731 180.969 9.3572 181.365 9.3989L181.407 9.0011C181.043 8.9628 180.743 8.8869 180.485 8.77617L180.327 9.14383ZM181.353 9.39728C181.728 9.45976 182.12 9.48 182.526 9.48V9.08C182.132 9.08 181.764 9.06024 181.419 9.00272L181.353 9.39728ZM182.526 9.48C182.933 9.48 183.324 9.45969 183.717 9.39755L183.655 9.00245C183.288 9.0603 182.92 9.08 182.526 9.08V9.48ZM183.708 9.39878C184.085 9.35691 184.423 9.2728 184.74 9.14569L184.592 8.7743C184.31 8.8872 184.007 8.96309 183.664 9.00122L183.708 9.39878ZM184.733 9.14835C185.039 9.0391 185.285 8.88381 185.488 8.68142L185.205 8.39858C185.047 8.55619 184.853 8.6809 184.599 8.77165L184.733 9.14835ZM185.488 8.68142C185.679 8.49029 185.806 8.24143 185.806 7.94H185.406C185.406 8.11857 185.334 8.26971 185.205 8.39858L185.488 8.68142ZM185.806 7.94C185.806 7.6376 185.678 7.39229 185.496 7.18713L185.197 7.45287C185.334 7.60771 185.406 7.76239 185.406 7.94H185.806ZM185.471 7.16383C185.266 6.99987 185.03 6.82674 184.725 6.69617L184.567 7.06383C184.823 7.17326 185.026 7.32013 185.221 7.47617L185.471 7.16383ZM184.709 6.69026C184.397 6.58624 184.047 6.50402 183.679 6.44272L183.613 6.83728C183.965 6.89598 184.295 6.97376 184.583 7.06974L184.709 6.69026ZM183.667 6.4411C183.28 6.40039 182.893 6.38 182.526 6.38V6.78C182.879 6.78 183.252 6.79961 183.625 6.8389L183.667 6.4411ZM198.455 2H198.655V1.8H198.455V2ZM198.455 16.28H198.255V16.48H198.455V16.28ZM207.435 16.28H207.635V16.08H207.435V16.28ZM207.435 17.92V18.12H207.635V17.92H207.435ZM196.455 17.92H196.255V18.12H196.455V17.92ZM196.455 2V1.8H196.255V2H196.455ZM211.695 18.12V18.32H211.895V18.12H211.695ZM209.695 18.12H209.495V18.32H209.695V18.12ZM209.695 1.6V1.4H209.495V1.6H209.695ZM211.695 1.6H211.895V1.4H211.695V1.6ZM198.255 2V16.28H198.655V2H198.255ZM198.455 16.48H207.435V16.08H198.455V16.48ZM207.235 16.28V17.92H207.635V16.28H207.235ZM207.435 17.72H196.455V18.12H207.435V17.72ZM196.655 17.92V2H196.255V17.92H196.655ZM196.455 2.2H198.455V1.8H196.455V2.2ZM211.695 17.92H209.695V18.32H211.695V17.92ZM209.895 18.12V1.6H209.495V18.12H209.895ZM209.695 1.8H211.695V1.4H209.695V1.8ZM211.495 1.6V18.12H211.895V1.6H211.495ZM225.438 17.92V18.12H225.638V17.92H225.438ZM214.658 17.92H214.458V18.12H214.658V17.92ZM214.658 2V1.8H214.458V2H214.658ZM225.238 2H225.438V1.8H225.238V2ZM225.238 3.64V3.84H225.438V3.64H225.238ZM216.658 3.64V3.44H216.458V3.64H216.658ZM216.658 16.28H216.458V16.48H216.658V16.28ZM225.438 16.28H225.638V16.08H225.438V16.28ZM229.298 8.16H229.098V8.36H229.298V8.16ZM231.638 8.16H231.838V7.96H231.638V8.16ZM231.638 9.8V10H231.838V9.8H231.638ZM229.298 9.8V9.6H229.098V9.8H229.298ZM229.298 18.12V18.32H229.498V18.12H229.298ZM227.298 18.12H227.098V18.32H227.298V18.12ZM227.298 1.6V1.4H227.098V1.6H227.298ZM229.298 1.6H229.498V1.4H229.298V1.6ZM225.438 17.72H214.658V18.12H225.438V17.72ZM214.858 17.92V2H214.458V17.92H214.858ZM214.658 2.2H225.238V1.8H214.658V2.2ZM225.038 2V3.64H225.438V2H225.038ZM225.238 3.44H216.658V3.84H225.238V3.44ZM216.458 3.64V16.28H216.858V3.64H216.458ZM216.658 16.48H225.438V16.08H216.658V16.48ZM225.238 16.28V17.92H225.638V16.28H225.238ZM229.298 8.36H231.638V7.96H229.298V8.36ZM231.438 8.16V9.8H231.838V8.16H231.438ZM231.638 9.6H229.298V10H231.638V9.6ZM229.098 9.8V18.12H229.498V9.8H229.098ZM229.298 17.92H227.298V18.32H229.298V17.92ZM227.498 18.12V1.6H227.098V18.12H227.498ZM227.298 1.8H229.298V1.4H227.298V1.8ZM229.098 1.6V8.16H229.498V1.6H229.098ZM236.066 18.24V18.44H236.266V18.24H236.066ZM233.866 18.24H233.666V18.44H233.866V18.24ZM233.866 16.1V15.9H233.666V16.1H233.866ZM236.066 16.1H236.266V15.9H236.066V16.1ZM236.066 18.04H233.866V18.44H236.066V18.04ZM234.066 18.24V16.1H233.666V18.24H234.066ZM233.866 16.3H236.066V15.9H233.866V16.3ZM235.866 16.1V18.24H236.266V16.1H235.866Z" fill="#F4F4F4"/>
</svg>
