<svg width="152" height="57" viewBox="0 0 152 57" fill="none" xmlns="http://www.w3.org/2000/svg">
<g clip-path="url(#clip0_149_41)">
<path d="M151.366 0.633301H96.5519V42.4692H151.366V0.633301Z" fill="white"/>
<path d="M152 43.1053H95.9148V0H152V43.1053ZM97.1862 41.8359H150.729V1.2694H97.1862V41.8359Z" fill="#272626"/>
<path d="M96.5491 0.633301H0.634262V42.4692H96.5491V0.633301Z" fill="#272626"/>
<path d="M97.1862 43.1053H0V0H97.1862V43.1053ZM1.2714 41.8359H95.9177V1.2694H1.2714V41.8359Z" fill="#272626"/>
<path d="M51.4674 5.19226C49.7626 5.19226 48.3793 6.57628 48.3793 8.27838C48.3793 9.98047 49.7655 11.3616 51.4674 11.3616C53.1693 11.3616 54.5555 9.9776 54.5555 8.27838C54.5555 6.57915 53.1693 5.19226 51.4674 5.19226Z" fill="white"/>
<path d="M13.3225 4.6936H4.05815V10.4188H13.3225V37.8643H19.0567V10.4188H28.321V4.6936H19.0567H13.3225Z" fill="white"/>
<path d="M43.1875 13.8947C40.0362 14.9148 37.6628 16.2788 35.8719 17.7115V13.8488H30.1377V37.8644H35.8719V25.3652C39.7349 20.9294 44.1633 19.3477 44.2236 19.3276L44.6311 19.1872L43.7586 13.7113L43.1875 13.8947Z" fill="white"/>
<path d="M54.3345 13.8489H48.6003V37.8644H54.3345V13.8489Z" fill="white"/>
<path d="M93.4122 4.94873H87.678V37.6065H93.4122V4.94873Z" fill="#728CFE"/>
<path d="M82.8248 24.6345C82.8248 18.7774 78.052 14.0093 72.1829 14.0093C69.8898 14.0093 67.7718 14.7428 66.0325 15.9779V13.8459H60.2983V42.4692H66.0325V33.2882C67.7718 34.5232 69.8898 35.2568 72.1829 35.2568C78.0492 35.2568 82.8248 30.4915 82.8248 24.6316V24.6345ZM72.1829 29.4914C69.4995 29.4914 67.3183 27.3137 67.3183 24.6345C67.3183 21.9552 69.4995 19.7775 72.1829 19.7775C74.8664 19.7775 77.0475 21.9581 77.0475 24.6345C77.0475 27.3108 74.8635 29.4914 72.1829 29.4914Z" fill="white"/>
<path d="M100.355 5.09193V10.5507V18.4164V24.1416V32.0073V37.7325H106.089H121.544V32.0073H106.089V24.1416H121.544V18.4164H106.089V10.5507H121.544V4.82544H100.355V5.09193Z" fill="#272626"/>
<path d="M133.176 32.0073L147.118 10.5507H147.173V4.82544H126.388V10.5507H140.299L126.368 31.9873L126.397 32.0073H126.374V37.7325H147.56V32.0073H133.176Z" fill="#272626"/>
<path d="M51.0025 46.5782H52.1418V49.16C52.4862 48.7331 52.9713 48.5669 53.33 48.5669C54.5268 48.5669 55.3648 49.4523 55.3648 50.716C55.3648 51.9797 54.5268 52.8823 53.33 52.8823C52.9713 52.8823 52.5178 52.7992 52.1418 52.2805V52.825L51.0025 52.8164V46.5811V46.5782ZM54.2254 50.716C54.2254 49.9624 53.8323 49.4781 53.221 49.4781C52.6096 49.4781 52.1418 50.0225 52.1418 50.716C52.1418 51.4094 52.6183 51.9711 53.221 51.9711C53.8236 51.9711 54.2254 51.4782 54.2254 50.716Z" fill="#3D3D3D"/>
<path d="M56.5128 54.8051L57.5001 52.4726L55.6576 48.4437H56.9232L58.0884 51.2519L59.2278 48.4437H60.4677L58.7772 52.3895L57.7555 54.8051H56.5157H56.5128Z" fill="#3D3D3D"/>
<path d="M135.288 53.9455L129.456 46.478H127.241V56.8023H129.333V49.3722L135.351 56.8023H137.352V46.478H135.288V53.9455Z" fill="#3D3D3D"/>
<path d="M85.1495 47.5756C84.8281 47.2661 84.389 47.0053 83.8379 46.7933C83.2898 46.5812 82.578 46.4752 81.7113 46.4752H77.0849V56.7995H79.4239V52.636H81.8576C82.3398 52.636 82.8306 52.5758 83.3271 52.4612C83.8236 52.3437 84.2713 52.1575 84.6674 51.9082C85.0605 51.6589 85.3848 51.3379 85.6345 50.9454C85.8814 50.5528 86.0048 50.0829 86.0048 49.5327C86.0048 49.2404 85.9474 48.9137 85.8211 48.5641C85.7005 48.2088 85.4738 47.8793 85.1524 47.5727L85.1495 47.5756ZM83.0946 50.9138C82.7416 51.2548 82.268 51.4268 81.674 51.4268H79.4239V47.6157H81.674C82.2307 47.6157 82.6957 47.7962 83.0659 48.1601C83.439 48.5183 83.6227 48.9882 83.6227 49.5671C83.6227 50.1459 83.4447 50.5671 83.0946 50.9138Z" fill="#3D3D3D"/>
<path d="M89.6209 46.478H87.3967V56.8023H93.5126C94.2646 56.8023 94.8414 56.3381 94.8414 55.5559H89.6209V46.478Z" fill="#3D3D3D"/>
<path d="M150.387 49.5326C150.074 48.8822 149.644 48.3148 149.101 47.8305C148.559 47.3463 147.922 46.9652 147.193 46.6843C146.464 46.4035 145.677 46.266 144.834 46.266C143.99 46.266 143.201 46.4035 142.463 46.6843C141.731 46.968 141.094 47.3491 140.557 47.8305C140.021 48.3148 139.593 48.8822 139.28 49.5326C138.967 50.1831 138.812 50.8851 138.812 51.6244C138.812 52.3637 138.967 53.0686 139.28 53.7162C139.593 54.3696 140.021 54.9426 140.566 55.4326C141.108 55.9198 141.746 56.3037 142.475 56.5817C143.204 56.8654 143.987 57.0029 144.834 57.0029C145.68 57.0029 146.464 56.8625 147.193 56.5817C147.922 56.3037 148.559 55.9198 149.101 55.4326C149.647 54.9426 150.074 54.3724 150.387 53.7162C150.697 53.0686 150.855 52.3694 150.855 51.6244C150.855 50.8794 150.697 50.186 150.387 49.5326ZM148.303 53.0572C148.131 53.5128 147.884 53.9139 147.557 54.2607C147.236 54.6074 146.84 54.8767 146.378 55.0802C145.916 55.2808 145.399 55.3811 144.834 55.3811C144.268 55.3811 143.737 55.2808 143.278 55.0802C142.825 54.8767 142.434 54.6074 142.113 54.2607C141.786 53.9139 141.536 53.5156 141.367 53.0572C141.192 52.6016 141.103 52.1259 141.103 51.6244C141.103 51.123 141.192 50.6358 141.367 50.186C141.539 49.7361 141.786 49.3406 142.113 48.9997C142.437 48.6587 142.828 48.395 143.278 48.1945C143.737 48.0025 144.257 47.9022 144.834 47.9022C145.411 47.9022 145.916 48.0025 146.378 48.1945C146.84 48.3922 147.236 48.6587 147.557 48.9997C147.884 49.3406 148.131 49.7361 148.303 50.186C148.479 50.6358 148.565 51.1172 148.565 51.6244C148.565 52.1316 148.479 52.6016 148.303 53.0572Z" fill="#3D3D3D"/>
<path d="M100.191 46.478L95.1141 56.8023H97.3268L98.5982 54.0687H102.395C103.024 54.0687 103.529 53.7449 103.681 53.1832L105.374 56.8023H107.581L102.57 46.478H100.194H100.191ZM99.178 52.8136L101.336 48.1658L103.509 52.8136H99.178Z" fill="#3D3D3D"/>
<path d="M106.166 47.7216H109.966V56.8023H112.193V47.7216H114.992C115.744 47.7216 116.323 47.2574 116.323 46.478H106.169V47.7216H106.166Z" fill="#3D3D3D"/>
<path d="M124.534 47.7216C125.286 47.7216 125.866 47.2574 125.866 46.478H117.391V56.8023H124.531C125.283 56.8023 125.863 56.3381 125.863 55.5559H119.618V51.8451H123.277C124.029 51.8422 124.606 51.378 124.606 50.6014H119.615V47.7216H124.529H124.534Z" fill="#3D3D3D"/>
<path d="M71.474 56.8482H73.1702V55.5674H72.4297C72.2174 56.3926 71.8299 56.725 71.474 56.8482Z" fill="#3D3D3D"/>
<path d="M65.5533 55.5702C65.3811 56.3811 65.0309 56.7192 64.7009 56.8511H66.5836L67.0944 55.5702H65.5504H65.5533Z" fill="#3D3D3D"/>
<path d="M63.3118 55.5702V56.8482H63.9518L64.4627 55.5702H63.3118Z" fill="#3D3D3D"/>
<path d="M70.0735 47.7933H73.1702V46.5125H70.0764C70.0821 46.9623 70.0792 47.3893 70.0735 47.7933Z" fill="#3D3D3D"/>
<path d="M65.0281 47.7933H69.379L69.8955 46.5125H64.9678C65.0137 46.9996 65.0309 47.4237 65.0252 47.7933H65.0281Z" fill="#3D3D3D"/>
<path d="M63.3118 46.5125V47.7933H64.2503L64.7612 46.5125H63.3118Z" fill="#3D3D3D"/>
<path d="M67.9354 54.5845H69.8554L70.3662 53.3036H69.1666C68.8107 54.0372 68.3802 54.4154 67.9325 54.5845H67.9354Z" fill="#3D3D3D"/>
<path d="M63.3118 53.3065V54.5845H64.853L65.3667 53.3065H63.3118Z" fill="#3D3D3D"/>
<path d="M70.6446 54.5845H71.5888L72.0997 53.3036H70.6016C70.6618 53.8194 70.6704 54.2406 70.6446 54.5845Z" fill="#3D3D3D"/>
<path d="M65.6623 54.5845H66.6324L67.149 53.3036H65.6135C65.6595 53.7936 65.6738 54.2177 65.6623 54.5845Z" fill="#3D3D3D"/>
<path d="M72.5761 54.5845H73.1731V53.3036H72.5675C72.5991 53.7936 72.5991 54.2148 72.5761 54.5845Z" fill="#3D3D3D"/>
<path d="M63.3118 51.0399V52.3208H64.609L65.1199 51.0399H63.3118Z" fill="#3D3D3D"/>
<path d="M66.2105 51.0399C66.044 51.8337 65.7111 52.1804 65.3897 52.3208H67.5479L68.0645 51.0399H66.2105Z" fill="#3D3D3D"/>
<path d="M73.1702 52.3208V51.0399H69.8152C69.7377 51.5242 69.643 51.9483 69.5368 52.3208H73.1702Z" fill="#3D3D3D"/>
<path d="M73.1702 50.057V48.7761H70.039C70.0161 49.2346 69.9845 49.6616 69.9443 50.057H73.1702Z" fill="#3D3D3D"/>
<path d="M63.3118 48.7761V50.057H63.3463L63.8571 48.7761H63.3118Z" fill="#3D3D3D"/>
<path d="M66.3167 50.057H68.4634L68.9829 48.7761H66.2679C66.3138 49.2633 66.3282 49.6873 66.3167 50.057Z" fill="#3D3D3D"/>
<path d="M64.9362 48.7761C64.7927 49.5125 64.5115 49.8793 64.2245 50.057H65.516L66.0268 48.7761H64.9362Z" fill="#3D3D3D"/>
<path d="M71.1928 55.5702H70.3748C69.9759 56.2292 69.2986 55.98 69.2986 55.98L69.4622 55.5702H67.3901C67.4101 56.4413 67.1777 56.7508 66.9567 56.8511H70.6819L71.1928 55.5702Z" fill="#3D3D3D"/>
</g>
<defs>
<clipPath id="clip0_149_41">
<rect width="152" height="57" fill="white"/>
</clipPath>
</defs>
</svg>
